<svg width="6134" height="4922" viewBox="0 0 6134 4922" fill="none" xmlns="http://www.w3.org/2000/svg">
<g clip-path="url(#clip0_396_1814)">
<path fill-rule="evenodd" clip-rule="evenodd" d="M5133.33 3822.05C5162.01 3863.02 5175.57 3927.96 5165.7 3976.98C5157.67 4016.81 5164.76 4058 5189.06 4092.31C5240.33 4164.69 5349.01 4179.26 5433.07 4125.53C5433.09 4125.52 5433.11 4125.51 5433.13 4125.52L5454.39 4109.79C5526.24 4056.62 5603.82 4011.66 5685.66 3975.73L5763.52 3941.55C5785.69 3930.72 5797.69 3906.31 5792.67 3882.26C5787.27 3856.43 5763.83 3838.36 5737.36 3839.61L5581.14 3847C5562.74 3847.87 5546.45 3835.31 5542.7 3817.36C5538.95 3799.42 5548.85 3781.39 5566.06 3774.82L5712.17 3719.04C5736.93 3709.59 5751.17 3683.65 5745.78 3657.82C5740.75 3633.77 5719.98 3616.2 5695.33 3615.16L5610.3 3615.01C5520.91 3614.86 5431.83 3604.71 5344.7 3584.76L5318.92 3578.86C5318.9 3578.87 5318.88 3578.88 5318.86 3578.88C5220.31 3563.3 5126.56 3620.15 5108.56 3707.02C5100.03 3748.18 5110.03 3788.76 5133.33 3822.05Z" fill="url(#paint0_linear_396_1814)"/>
</g>
<g clip-path="url(#clip1_396_1814)">
<mask id="mask0_396_1814" style="mask-type:alpha" maskUnits="userSpaceOnUse" x="979" y="332" width="630" height="555">
<path d="M980.26 587.72C978.257 583.782 979.825 578.966 983.763 576.962L1034.19 551.305C1039.36 548.674 1045.62 549.505 1049.93 553.393L1113.75 611.037C1121.92 618.41 1134.27 618.62 1142.68 611.528L1251.94 519.386C1253.81 517.808 1256.02 516.68 1258.39 516.089L1398.71 481.217C1409.65 478.498 1416.76 467.949 1415.18 456.787L1403.49 374.035C1402.65 368.112 1405.67 362.311 1411 359.598L1462.33 333.482C1466.46 331.383 1471.5 333.213 1473.32 337.469L1607.24 650.855C1609.72 656.664 1607.27 663.402 1601.64 666.266L1171.15 885.287C1165.55 888.135 1158.7 886.184 1155.45 880.813L993.365 613.478L980.26 587.72Z" fill="url(#paint1_linear_396_1814)"/>
</mask>
<g mask="url(#mask0_396_1814)">
<rect x="976.633" y="580.59" width="553.5" height="359.775" transform="rotate(-26.9654 976.633 580.59)" fill="#F7A6A5"/>
<rect opacity="0.6" x="1159.93" y="574.686" width="212.175" height="171.219" transform="rotate(-26.9654 1159.93 574.686)" fill="url(#paint2_linear_396_1814)"/>
<rect opacity="0.6" x="1009.85" y="506.597" width="293.781" height="96.1064" transform="rotate(29.242 1009.85 506.597)" fill="url(#paint3_linear_396_1814)"/>
<rect opacity="0.6" width="293.781" height="75.5858" transform="matrix(-0.0930203 0.995664 0.995664 0.0930203 1404.38 322.821)" fill="url(#paint4_linear_396_1814)"/>
</g>
<path fill-rule="evenodd" clip-rule="evenodd" d="M1168.63 204.666C1142.34 236.037 1093.89 260.684 1053.05 263.469C1019.87 265.732 988.818 280.175 966.861 306.665C920.525 362.565 932.061 451.163 992.356 505.704C992.369 505.716 992.377 505.733 992.379 505.751L1009.32 519.082C1066.58 564.144 1118.57 615.469 1164.32 672.099L1207.84 725.97C1221.11 741.075 1242.94 745.258 1260.89 736.13C1280.15 726.327 1289.47 704.006 1282.86 683.454L1243.89 562.194C1239.3 547.912 1245.77 532.401 1259.16 525.589C1272.55 518.777 1288.9 522.678 1297.74 534.797L1372.81 637.692C1385.53 655.131 1409.06 660.746 1428.32 650.943C1446.27 641.815 1455.74 621.701 1451.34 602.088L1433.42 535.19C1414.59 464.864 1403.71 392.622 1401 319.809L1400.19 298.269C1400.18 298.257 1400.17 298.24 1400.17 298.223C1391.58 217.374 1326.76 155.886 1254.29 160.428C1219.96 162.58 1190 179.178 1168.63 204.666Z" fill="url(#paint5_linear_396_1814)"/>
</g>
<g clip-path="url(#clip2_396_1814)">
<path fill-rule="evenodd" clip-rule="evenodd" d="M999.419 3049.51C949.927 3042.35 893.314 3007.77 864.355 2967C840.826 2933.87 805.951 2910.83 764.317 2905.04C676.456 2892.83 591.417 2962.05 573.003 3060.1C572.999 3060.12 572.987 3060.14 572.969 3060.15L569.873 3086.41C559.407 3175.18 539.05 3262.51 509.18 3346.75L480.766 3426.89C473.474 3450.47 483.044 3475.93 504.009 3488.74C526.527 3502.49 555.746 3497.79 572.966 3477.64L674.565 3358.74C686.531 3344.74 706.836 3341.47 722.483 3351.03C738.13 3360.59 744.49 3380.15 737.493 3397.18L678.077 3541.85C668.007 3566.37 677.159 3594.52 699.677 3608.27C720.642 3621.08 747.665 3617.97 765.312 3600.73L823.648 3538.86C884.973 3473.83 953.376 3415.86 1027.58 3366.03L1049.53 3351.29C1049.54 3351.27 1049.55 3351.25 1049.57 3351.24C1128.41 3290.1 1151.18 3182.84 1100.21 3110.24C1076.05 3075.84 1039.63 3055.32 999.419 3049.51Z" fill="url(#paint6_linear_396_1814)"/>
<g filter="url(#filter0_f_396_1814)">
<path d="M732.019 3005.51L754.898 2941.2C755.215 2940.31 754.864 2939.32 754.056 2938.83L738.081 2929.07C737.251 2928.56 736.176 2928.73 735.535 2929.46L691.051 2980.2C689.141 2982.38 686.087 2983.16 683.368 2982.16L611.933 2955.85C611.037 2955.52 610.032 2955.87 609.535 2956.68L600.373 2971.68C599.86 2972.52 600.035 2973.61 600.785 2974.25L658.119 3022.96C660.418 3024.91 661.207 3028.12 660.076 3030.92L633.642 3096.27C633.275 3097.17 633.618 3098.21 634.454 3098.72L650.405 3108.47C651.218 3108.96 652.269 3108.82 652.916 3108.12L701.276 3055.82C703.256 3053.67 706.358 3052.98 709.059 3054.09L775.694 3081.27C777.056 3081.82 778.621 3081.31 779.387 3080.05L787.69 3066.46C788.433 3065.25 788.218 3063.68 787.176 3062.7L733.841 3012.98C731.799 3011.07 731.084 3008.14 732.019 3005.51Z" fill="url(#paint7_linear_396_1814)"/>
</g>
<path d="M719.284 3006.21L748.399 2941.36C749.604 2938.67 748.626 2935.51 746.114 2933.98C743.543 2932.41 740.199 2933.05 738.391 2935.46L696.197 2991.74C693.372 2995.51 688.3 2996.8 684.02 2994.83L612.332 2961.89C609.669 2960.67 606.513 2961.63 604.985 2964.13C603.417 2966.7 604.081 2970.04 606.512 2971.81L669.565 3017.8C673.491 3020.67 674.79 3025.94 672.645 3030.3L640.285 3096.09C638.957 3098.79 639.906 3102.05 642.473 3103.62C644.983 3105.15 648.242 3104.57 650.068 3102.27L696.047 3044.24C698.988 3040.53 704.128 3039.39 708.362 3041.51L776.02 3075.38C778.714 3076.73 781.992 3075.79 783.562 3073.22C785.09 3070.72 784.511 3067.47 782.213 3065.65L722.2 3018.15C718.61 3015.31 717.408 3010.39 719.284 3006.21Z" fill="url(#paint8_linear_396_1814)"/>
<g filter="url(#filter1_f_396_1814)">
<path d="M902.773 3413.23L916.384 3374.98C916.701 3374.08 916.35 3373.09 915.542 3372.6L906.546 3367.1C905.716 3366.6 904.641 3366.76 903.999 3367.49L877.618 3397.59C875.708 3399.77 872.654 3400.54 869.935 3399.54L827.266 3383.83C826.37 3383.5 825.366 3383.85 824.868 3384.66L819.757 3393.03C819.243 3393.87 819.418 3394.96 820.168 3395.59L854.304 3424.6C856.604 3426.55 857.393 3429.76 856.261 3432.56L840.58 3471.32C840.213 3472.23 840.557 3473.27 841.392 3473.78L850.365 3479.26C851.178 3479.76 852.229 3479.61 852.876 3478.91L881.648 3447.79C883.628 3445.65 886.73 3444.96 889.431 3446.06L928.785 3462.12C930.147 3462.67 931.711 3462.16 932.478 3460.9L936.731 3453.94C937.474 3452.73 937.259 3451.16 936.217 3450.18L904.594 3420.7C902.553 3418.8 901.837 3415.86 902.773 3413.23Z" fill="url(#paint9_linear_396_1814)"/>
</g>
<path d="M895.377 3412.65L912.5 3374.5C913.258 3372.82 912.642 3370.83 911.063 3369.86C909.446 3368.88 907.344 3369.28 906.207 3370.79L881.474 3403.79C878.649 3407.56 873.577 3408.84 869.297 3406.88L826.945 3387.41C825.271 3386.65 823.286 3387.25 822.326 3388.82C821.339 3390.44 821.757 3392.54 823.285 3393.65L860.411 3420.73C864.336 3423.6 865.636 3428.87 863.491 3433.23L844.521 3471.79C843.686 3473.49 844.282 3475.54 845.897 3476.53C847.475 3477.49 849.524 3477.13 850.673 3475.68L877.709 3441.56C880.649 3437.85 885.79 3436.71 890.023 3438.83L929.867 3458.77C931.561 3459.62 933.622 3459.03 934.61 3457.42C935.57 3455.84 935.206 3453.8 933.761 3452.66L898.293 3424.58C894.703 3421.74 893.502 3416.82 895.377 3412.65Z" fill="url(#paint10_linear_396_1814)"/>
</g>
<g clip-path="url(#clip3_396_1814)">
<path fill-rule="evenodd" clip-rule="evenodd" d="M4310.55 1347.69C4276.13 1383.97 4215.21 1410.23 4165.2 1410.34C4124.57 1410.43 4085.62 1425.6 4056.86 1456.26C3996.15 1520.96 4003.59 1630.39 4073.07 1702.03L4073.05 1702.05L4184.21 1813.36L4319.27 1989.05C4334.31 2008.62 4360.63 2015.5 4383.19 2005.78C4407.42 1995.33 4420.45 1968.76 4413.94 1943.07L4375.51 1791.47C4370.98 1773.61 4380.03 1755.15 4396.87 1747.89C4413.71 1740.63 4433.35 1746.73 4443.23 1762.28L4527.05 1894.31C4541.26 1916.69 4569.52 1925.46 4593.75 1915.02C4616.31 1905.29 4629.38 1881.43 4625.48 1857.07L4590.49 1638.23L4585.9 1480.99L4585.87 1480.99C4581.49 1381.29 4507.04 1300.75 4418.32 1300.46C4376.29 1300.32 4338.51 1318.22 4310.55 1347.69Z" fill="url(#paint11_linear_396_1814)"/>
<mask id="mask1_396_1814" style="mask-type:alpha" maskUnits="userSpaceOnUse" x="4075" y="1326" width="552" height="685">
<path fill-rule="evenodd" clip-rule="evenodd" d="M4075.2 1704.21L4184.2 1813.36L4319.27 1989.06C4334.31 2008.62 4360.62 2015.51 4383.18 2005.78C4407.41 1995.34 4420.44 1968.76 4413.93 1943.07L4375.5 1791.47C4370.97 1773.62 4380.03 1755.15 4396.87 1747.89C4413.7 1740.63 4433.35 1746.73 4443.22 1762.28L4527.04 1894.31C4541.25 1916.69 4569.51 1925.47 4593.75 1915.02C4616.31 1905.3 4629.37 1881.44 4625.47 1857.07L4590.49 1638.24L4585.89 1481L4585.86 1481C4582.98 1415.43 4549.8 1358.15 4502.18 1326.53L4075.2 1704.21Z" fill="url(#paint12_linear_396_1814)"/>
</mask>
<g mask="url(#mask1_396_1814)">
<rect x="3923.6" y="1575.91" width="715.167" height="622.798" transform="rotate(-23.3177 3923.6 1575.91)" fill="url(#paint13_linear_396_1814)"/>
<g filter="url(#filter2_f_396_1814)">
<path d="M4438.02 1626.42C4473 1623.9 4499.57 1593.92 4497.88 1558.9L4492.23 1441.63L4493.81 1335.28L4095.34 1687.6C4138.17 1660.55 4187.01 1644.49 4237.53 1640.85L4438.02 1626.42Z" fill="url(#paint14_linear_396_1814)" fill-opacity="0.17"/>
</g>
<g filter="url(#filter3_f_396_1814)">
<path d="M4321.98 1638.13C4444.28 1631.88 4527.77 1511.85 4491.1 1395.01C4488.76 1387.55 4488.18 1379.64 4489.4 1371.92L4498.44 1314.91L4493.81 1335.28L4095.34 1687.6L4099.24 1685.14C4139.45 1659.74 4185.52 1645.12 4233.03 1642.69L4321.98 1638.13Z" fill="url(#paint15_linear_396_1814)" fill-opacity="0.17"/>
</g>
<g filter="url(#filter4_f_396_1814)">
<path d="M4427.2 1632.75C4495.45 1629.26 4541.3 1561.33 4519.03 1496.73C4509.12 1468.01 4503.54 1437.98 4502.46 1407.63L4500.46 1351.4C4499.93 1336.36 4480.89 1330.22 4471.66 1342.1L4095.34 1687.6L4128.91 1666.4C4149.67 1653.28 4173.46 1645.73 4197.98 1644.48L4427.2 1632.75Z" fill="url(#paint16_linear_396_1814)" fill-opacity="0.17"/>
</g>
<path d="M4480.51 1480.47C4480 1533.78 4441.55 1579.15 4389.05 1588.42L4281.28 1607.43C4207.4 1623.76 4137.98 1656.03 4077.88 1702L4502.54 1326.18C4489.35 1337.85 4481.72 1354.57 4481.55 1372.19L4480.51 1480.47Z" fill="url(#paint17_linear_396_1814)"/>
</g>
</g>
<g clip-path="url(#clip4_396_1814)">
<path d="M4027.04 2801.75L4319.44 2644.28L4361.81 2749.34C4374.07 2779.74 4402.92 2800.2 4435.66 2801.72L4094.53 2985.43C4111.28 2957.26 4110.07 2921.91 4091.44 2894.94L4027.04 2801.75Z" fill="url(#paint18_linear_396_1814)"/>
<path d="M4027.04 2801.75L4319.44 2644.28L4361.81 2749.34C4374.07 2779.74 4402.92 2800.2 4435.66 2801.72L4094.53 2985.43C4111.28 2957.26 4110.07 2921.91 4091.44 2894.94L4027.04 2801.75Z" fill="url(#paint19_linear_396_1814)" fill-opacity="0.4"/>
<path d="M4027.04 2801.75L4319.44 2644.28L4361.81 2749.34C4374.07 2779.74 4402.92 2800.2 4435.66 2801.72L4094.53 2985.43C4111.28 2957.26 4110.07 2921.91 4091.44 2894.94L4027.04 2801.75Z" fill="url(#paint20_linear_396_1814)" fill-opacity="0.05"/>
<path d="M4027.04 2801.75L4319.44 2644.28L4361.81 2749.34C4374.07 2779.74 4402.92 2800.2 4435.66 2801.72L4094.53 2985.43C4111.28 2957.26 4110.07 2921.91 4091.44 2894.94L4027.04 2801.75Z" fill="url(#paint21_linear_396_1814)" fill-opacity="0.2"/>
<path d="M4465.92 2823.12C4463.33 2808.97 4450.58 2798.9 4436.24 2800L4296.88 2810.76C4250.18 2814.36 4207.17 2837.52 4178.46 2874.53L4092.78 2984.97C4083.96 2996.33 4085.36 3012.52 4095.74 3022.48C4126.93 3052.37 4145.88 3074.29 4178.06 3112.21L4215.9 3156.79C4232.61 3174.94 4259.55 3179.43 4281.36 3167.72C4281.37 3167.71 4281.39 3167.7 4281.41 3167.69C4281.43 3167.68 4281.45 3167.67 4281.47 3167.66C4304.86 3155.03 4315.67 3127.36 4306.98 3102.33L4256.42 2955.88C4250.38 2938.47 4257.57 2918.59 4273.85 2909.82C4290.13 2901.05 4310.68 2906 4321.89 2920.62L4416.34 3043.44C4432.46 3064.46 4461.51 3070.66 4484.93 3058.09C4484.95 3058.08 4484.97 3058.07 4484.98 3058.06C4485 3058.05 4485.02 3058.04 4485.04 3058.03C4506.82 3046.27 4517.89 3021.3 4511.94 2997.36L4495.54 2941.23C4481.59 2893.49 4473.72 2865.61 4465.92 2823.12Z" fill="url(#paint22_linear_396_1814)"/>
<path d="M4465.92 2823.12C4463.33 2808.97 4450.58 2798.9 4436.24 2800L4296.88 2810.76C4250.18 2814.36 4207.17 2837.52 4178.46 2874.53L4092.78 2984.97C4083.96 2996.33 4085.36 3012.52 4095.74 3022.48C4126.93 3052.37 4145.88 3074.29 4178.06 3112.21L4215.9 3156.79C4232.61 3174.94 4259.55 3179.43 4281.36 3167.72C4281.37 3167.71 4281.39 3167.7 4281.41 3167.69C4281.43 3167.68 4281.45 3167.67 4281.47 3167.66C4304.86 3155.03 4315.67 3127.36 4306.98 3102.33L4256.42 2955.88C4250.38 2938.47 4257.57 2918.59 4273.85 2909.82C4290.13 2901.05 4310.68 2906 4321.89 2920.62L4416.34 3043.44C4432.46 3064.46 4461.51 3070.66 4484.93 3058.09C4484.95 3058.08 4484.97 3058.07 4484.98 3058.06C4485 3058.05 4485.02 3058.04 4485.04 3058.03C4506.82 3046.27 4517.89 3021.3 4511.94 2997.36L4495.54 2941.23C4481.59 2893.49 4473.72 2865.61 4465.92 2823.12Z" fill="url(#paint23_radial_396_1814)" fill-opacity="0.2"/>
<path d="M4030.25 2625.8C4080.4 2621.16 4139.3 2589.44 4170.77 2550.12C4183.98 2533.62 4200.08 2519.96 4218.38 2510.11L4218.39 2510.1C4235.5 2500.89 4254.53 2495 4274.9 2493.23C4363.92 2485.49 4445.35 2559.11 4458.12 2658.19L4458.14 2658.19C4458.72 2667.81 4459.21 2677.52 4459.81 2687.22C4460.73 2702.25 4449.93 2715.69 4434.97 2717.49L4258.33 2738.73C4212.07 2744.29 4169.63 2767.14 4139.53 2802.7L4024.58 2938.5C4014.84 2950 3997.69 2951.62 3985.64 2942.58C3977.87 2936.74 3970.03 2930.99 3962.32 2925.21L3962.34 2925.19C3886.64 2860 3869.99 2751.49 3925.44 2681.43C3951.71 2648.24 3989.51 2629.57 4030.25 2625.8Z" fill="url(#paint24_linear_396_1814)"/>
</g>
<g clip-path="url(#clip5_396_1814)">
<path d="M2674.37 3199.5L2967.73 3043.85L3009.45 3149.17C3021.52 3179.64 3050.25 3200.28 3082.98 3202L2740.72 3383.6C2757.64 3355.53 2756.66 3320.17 2738.19 3293.09L2674.37 3199.5Z" fill="url(#paint25_linear_396_1814)"/>
<path d="M2674.37 3199.5L2967.73 3043.85L3009.45 3149.17C3021.52 3179.64 3050.25 3200.28 3082.98 3202L2740.72 3383.6C2757.64 3355.53 2756.66 3320.17 2738.19 3293.09L2674.37 3199.5Z" fill="url(#paint26_linear_396_1814)" fill-opacity="0.4"/>
<path d="M2674.37 3199.5L2967.73 3043.85L3009.45 3149.17C3021.52 3179.64 3050.25 3200.28 3082.98 3202L2740.72 3383.6C2757.64 3355.53 2756.66 3320.17 2738.19 3293.09L2674.37 3199.5Z" fill="url(#paint27_linear_396_1814)" fill-opacity="0.05"/>
<path d="M2674.37 3199.5L2967.73 3043.85L3009.45 3149.17C3021.52 3179.64 3050.25 3200.28 3082.98 3202L2740.72 3383.6C2757.64 3355.53 2756.66 3320.17 2738.19 3293.09L2674.37 3199.5Z" fill="url(#paint28_linear_396_1814)" fill-opacity="0.2"/>
<path d="M2674.37 3199.5L2967.73 3043.85L3009.45 3149.17C3021.52 3179.64 3050.25 3200.28 3082.98 3202L2740.72 3383.6C2757.64 3355.53 2756.66 3320.17 2738.19 3293.09L2674.37 3199.5Z" fill="url(#paint29_linear_396_1814)" fill-opacity="0.3"/>
<path d="M3113.11 3223.59C3110.6 3209.42 3097.92 3199.27 3083.57 3200.29L2944.15 3210.18C2897.42 3213.49 2854.27 3236.39 2825.33 3273.22L2738.97 3383.12C2730.08 3394.43 2731.38 3410.63 2741.7 3420.65C2772.71 3450.73 2791.51 3472.77 2823.46 3510.89L2861.02 3555.71C2877.62 3573.95 2904.54 3578.61 2926.41 3567.04C2926.43 3567.03 2926.45 3567.02 2926.47 3567.01C2926.49 3567 2926.5 3566.99 2926.52 3566.98C2949.99 3554.49 2960.97 3526.89 2952.44 3501.81L2902.79 3355.05C2896.86 3337.6 2904.17 3317.76 2920.5 3309.1C2936.83 3300.43 2957.36 3305.5 2968.48 3320.19L3062.16 3443.59C3078.15 3464.72 3107.17 3471.1 3130.66 3458.67C3130.68 3458.66 3130.7 3458.65 3130.72 3458.64C3130.73 3458.63 3130.75 3458.62 3130.77 3458.61C3152.62 3446.98 3163.85 3422.09 3158.05 3398.11L3141.99 3341.88C3128.34 3294.05 3120.64 3266.13 3113.11 3223.59Z" fill="url(#paint30_linear_396_1814)"/>
<path d="M3113.11 3223.59C3110.6 3209.42 3097.92 3199.27 3083.57 3200.29L2944.15 3210.18C2897.42 3213.49 2854.27 3236.39 2825.33 3273.22L2738.97 3383.12C2730.08 3394.43 2731.38 3410.63 2741.7 3420.65C2772.71 3450.73 2791.51 3472.77 2823.46 3510.89L2861.02 3555.71C2877.62 3573.95 2904.54 3578.61 2926.41 3567.04C2926.43 3567.03 2926.45 3567.02 2926.47 3567.01C2926.49 3567 2926.5 3566.99 2926.52 3566.98C2949.99 3554.49 2960.97 3526.89 2952.44 3501.81L2902.79 3355.05C2896.86 3337.6 2904.17 3317.76 2920.5 3309.1C2936.83 3300.43 2957.36 3305.5 2968.48 3320.19L3062.16 3443.59C3078.15 3464.72 3107.17 3471.1 3130.66 3458.67C3130.68 3458.66 3130.7 3458.65 3130.72 3458.64C3130.73 3458.63 3130.75 3458.62 3130.77 3458.61C3152.62 3446.98 3163.85 3422.09 3158.05 3398.11L3141.99 3341.88C3128.34 3294.05 3120.64 3266.13 3113.11 3223.59Z" fill="url(#paint31_radial_396_1814)" fill-opacity="0.2"/>
<path d="M2678.67 3023.58C2728.84 3019.25 2787.94 2987.89 2819.65 2948.77C2832.97 2932.35 2849.15 2918.79 2867.51 2909.05L2867.52 2909.04C2884.69 2899.93 2903.75 2894.17 2924.14 2892.52C3013.2 2885.33 3094.17 2959.46 3106.33 3058.61L3106.35 3058.61C3106.87 3068.23 3107.3 3077.95 3107.84 3087.65C3108.66 3102.69 3097.78 3116.06 3082.82 3117.76L2906.04 3137.91C2859.75 3143.19 2817.17 3165.78 2786.85 3201.15L2671.06 3336.23C2661.25 3347.67 2644.08 3349.19 2632.09 3340.07C2624.36 3334.19 2616.56 3328.38 2608.88 3322.56L2608.9 3322.54C2533.61 3256.88 2517.63 3148.27 2573.51 3078.55C2599.99 3045.53 2637.9 3027.09 2678.67 3023.58Z" fill="url(#paint32_linear_396_1814)"/>
<g filter="url(#filter5_f_396_1814)">
<path d="M2586.66 3104.84L2548.62 3059.16C2548.01 3058.43 2546.98 3058.23 2546.15 3058.67L2531.91 3066.22C2531.05 3066.68 2530.65 3067.69 2530.95 3068.61L2549.23 3124.42C2550.13 3127.18 2549.24 3130.2 2546.99 3132.03L2495.54 3173.93C2494.8 3174.53 2494.59 3175.57 2495.03 3176.42L2502.11 3189.75C2502.57 3190.62 2503.6 3191.03 2504.53 3190.7L2566.48 3169.35C2569.33 3168.37 2572.5 3169.32 2574.33 3171.72L2611.55 3220.49C2612.14 3221.27 2613.21 3221.51 2614.07 3221.05L2628.28 3213.51C2629.12 3213.06 2629.53 3212.08 2629.26 3211.17L2611.52 3151.72C2610.69 3148.93 2611.68 3145.91 2614 3144.14L2663.86 3106.33C2665.03 3105.44 2665.38 3103.83 2664.69 3102.53L2658.39 3090.65C2657.72 3089.39 2656.26 3088.78 2654.89 3089.18L2594.01 3107.07C2591.33 3107.86 2588.44 3106.98 2586.66 3104.84Z" fill="url(#paint33_linear_396_1814)"/>
</g>
<path d="M2581.29 3114.48L2545.69 3064.01C2544.2 3061.89 2541.36 3061.21 2539.07 3062.43C2536.72 3063.67 2535.7 3066.5 2536.72 3068.95L2560.1 3125.36C2561.91 3129.71 2560.43 3134.73 2556.56 3137.41L2500.15 3176.46C2498.03 3177.93 2497.34 3180.76 2498.55 3183.04C2499.79 3185.38 2502.63 3186.38 2505.06 3185.33L2567.37 3158.55C2571.83 3156.63 2577.03 3158.2 2579.68 3162.26L2614.52 3215.53C2615.97 3217.75 2618.87 3218.5 2621.21 3217.26C2623.51 3216.04 2624.53 3213.31 2623.6 3210.89L2600.57 3150.84C2598.88 3146.42 2600.52 3141.41 2604.5 3138.85L2659.78 3103.26C2662.01 3101.82 2662.77 3098.91 2661.53 3096.56C2660.32 3094.28 2657.59 3093.26 2655.18 3094.19L2593.04 3118.05C2588.77 3119.69 2583.93 3118.22 2581.29 3114.48Z" fill="url(#paint34_linear_396_1814)"/>
</g>
<g clip-path="url(#clip6_396_1814)">
<path d="M5458.67 743.302C5443.33 752.378 5423.7 749.196 5412.02 735.74L5297.18 603.499C5285.53 590.08 5285.13 570.25 5296.24 556.376C5307.33 542.52 5321.39 530.591 5329.23 514.671C5339.21 494.412 5337.21 471.232 5333.95 449.411L5570.99 721.499C5550.09 715.29 5525.14 711.723 5503.89 717.933C5487.63 722.686 5474.22 734.099 5459.64 742.727L5458.67 743.302Z" fill="url(#paint35_linear_396_1814)"/>
<path d="M5458.67 743.302C5443.33 752.378 5423.7 749.196 5412.02 735.74L5297.18 603.499C5285.53 590.08 5285.13 570.25 5296.24 556.376C5307.33 542.52 5321.39 530.591 5329.23 514.671C5339.21 494.412 5337.21 471.232 5333.95 449.411L5570.99 721.499C5550.09 715.29 5525.14 711.723 5503.89 717.933C5487.63 722.686 5474.22 734.099 5459.64 742.727L5458.67 743.302Z" fill="url(#paint36_linear_396_1814)" fill-opacity="0.4"/>
<path d="M5458.67 743.302C5443.33 752.378 5423.7 749.196 5412.02 735.74L5297.18 603.499C5285.53 590.08 5285.13 570.25 5296.24 556.376C5307.33 542.52 5321.39 530.591 5329.23 514.671C5339.21 494.412 5337.21 471.232 5333.95 449.411L5570.99 721.499C5550.09 715.29 5525.14 711.723 5503.89 717.933C5487.63 722.686 5474.22 734.099 5459.64 742.727L5458.67 743.302Z" fill="url(#paint37_linear_396_1814)" fill-opacity="0.05"/>
<path d="M5349.22 419.46C5337.75 424.385 5331.27 436.585 5333.68 448.502C5334 450.075 5334.63 451.561 5335.35 452.993L5398.42 577.81C5410.82 602.361 5429.13 623.446 5451.7 639.171L5566.44 719.113C5567.76 720.031 5569.14 720.868 5570.65 721.403C5582.12 725.456 5595.1 720.753 5601.59 710.089C5622.34 675.956 5638.33 654.45 5666.11 617.77L5698.78 574.645C5711.81 555.916 5710.54 530.839 5695.71 513.715L5695.67 513.672L5695.63 513.629C5679.66 495.273 5652.62 491.298 5631.81 504.251L5509.98 579.824C5495.51 588.833 5476.2 586.499 5465.1 573.718C5454 560.937 5454.4 541.49 5465.35 528.423L5557.26 418.394C5573 399.605 5572.86 372.282 5556.92 353.89L5556.88 353.847L5556.85 353.804C5541.97 336.714 5517.32 331.944 5496.95 342.222L5449.67 368.517C5409.46 390.882 5385.92 403.697 5349.22 419.46Z" fill="url(#paint38_linear_396_1814)"/>
<path d="M5349.22 419.46C5337.75 424.385 5331.27 436.585 5333.68 448.502C5334 450.075 5334.63 451.561 5335.35 452.993L5398.42 577.81C5410.82 602.361 5429.13 623.446 5451.7 639.171L5566.44 719.113C5567.76 720.031 5569.14 720.868 5570.65 721.403C5582.12 725.456 5595.1 720.753 5601.59 710.089C5622.34 675.956 5638.33 654.45 5666.11 617.77L5698.78 574.645C5711.81 555.916 5710.54 530.839 5695.71 513.715L5695.67 513.672L5695.63 513.629C5679.66 495.273 5652.62 491.298 5631.81 504.251L5509.98 579.824C5495.51 588.833 5476.2 586.499 5465.1 573.718C5454 560.937 5454.4 541.49 5465.35 528.423L5557.26 418.394C5573 399.605 5572.86 372.282 5556.92 353.89L5556.88 353.847L5556.85 353.804C5541.97 336.714 5517.32 331.944 5496.95 342.222L5449.67 368.517C5409.46 390.882 5385.92 403.697 5349.22 419.46Z" fill="url(#paint39_radial_396_1814)" fill-opacity="0.2"/>
<path d="M5167.16 928.222C5153.47 884.477 5113.72 838.701 5072.33 819.011C5054.95 810.744 5039.59 799.295 5027.24 785.078L5027.23 785.066C5015.69 771.77 5006.78 756.054 5001.32 738.256C4977.46 660.503 5028.34 572.161 5115.19 539.641L5115.18 539.621C5123.74 537.052 5132.39 534.544 5141.02 531.946C5153.69 528.129 5167.07 534.009 5172.22 545.669C5172.79 546.959 5173.33 548.27 5173.98 549.519L5253.8 701.287C5267.08 726.534 5286.03 748.358 5309.17 765.045L5448.25 865.358C5449.39 866.183 5450.62 866.895 5451.81 867.641C5462.63 874.381 5466.58 888.45 5461.02 900.464C5457.24 908.638 5453.54 916.856 5449.8 924.967L5449.78 924.958C5405.41 1006.38 5310.8 1044.38 5237.16 1009.85C5202.28 993.496 5178.29 963.764 5167.16 928.222Z" fill="url(#paint40_linear_396_1814)"/>
</g>
<g clip-path="url(#clip7_396_1814)">
<path d="M3883.61 301.406C3914.39 341.139 3972.63 374.069 4022.54 379.968C4063.1 384.761 4100.49 404.222 4126.18 437.758C4180.4 508.542 4162.18 615.5 4085.76 678.046L4085.77 678.065L4035.92 717.639C4024.15 726.981 4007.89 728.254 3994.81 720.858L3605.78 500.869C3592.7 493.473 3585.41 478.885 3587.35 463.986L3595.57 400.866L3595.59 400.869C3609.8 303.141 3692.07 232.4 3780.67 242.384C3822.65 247.114 3858.6 269.124 3883.61 301.406Z" fill="url(#paint41_linear_396_1814)"/>
<path d="M3883.61 301.406C3914.39 341.139 3972.63 374.069 4022.54 379.968C4063.1 384.761 4100.49 404.222 4126.18 437.758C4180.4 508.542 4162.18 615.5 4085.76 678.046L4085.77 678.065L4035.92 717.639C4024.15 726.981 4007.89 728.254 3994.81 720.858L3605.78 500.869C3592.7 493.473 3585.41 478.885 3587.35 463.986L3595.57 400.866L3595.59 400.869C3609.8 303.141 3692.07 232.4 3780.67 242.384C3822.65 247.114 3858.6 269.124 3883.61 301.406Z" fill="url(#paint42_linear_396_1814)" fill-opacity="0.1"/>
<path d="M3883.61 301.406C3914.39 341.139 3972.63 374.069 4022.54 379.968C4063.1 384.761 4100.49 404.222 4126.18 437.758C4180.4 508.542 4162.18 615.5 4085.76 678.046L4085.77 678.065L4035.92 717.639C4024.15 726.981 4007.89 728.254 3994.81 720.858L3605.78 500.869C3592.7 493.473 3585.41 478.885 3587.35 463.986L3595.57 400.866L3595.59 400.869C3609.8 303.141 3692.07 232.4 3780.67 242.384C3822.65 247.114 3858.6 269.124 3883.61 301.406Z" fill="url(#paint43_linear_396_1814)" fill-opacity="0.05"/>
<path d="M3642.14 553.219L3931.22 716.688L3768.85 862.877C3736.27 892.203 3688.6 897.428 3650.45 875.855C3612.3 854.281 3592.21 810.737 3600.55 767.71L3642.14 553.219Z" fill="url(#paint44_linear_396_1814)"/>
<path d="M3564.11 503.796C3570.37 492.709 3584.44 488.803 3595.53 495.073L4005.06 726.654C4016.15 732.923 4020.06 746.994 4013.79 758.081C4007.52 769.168 3993.45 773.074 3982.36 766.804L3572.83 535.223C3561.74 528.953 3557.84 514.883 3564.11 503.796Z" fill="url(#paint45_linear_396_1814)"/>
<path d="M3582.39 752.585C3587.4 743.715 3598.66 740.59 3607.53 745.606L3784.19 845.504C3793.06 850.519 3796.18 861.776 3791.17 870.646C3786.15 879.515 3774.9 882.64 3766.03 877.624L3589.37 777.726C3580.5 772.711 3577.37 761.454 3582.39 752.585Z" fill="url(#paint46_linear_396_1814)"/>
<path d="M3594.1 685.022C3599.11 676.152 3610.37 673.028 3619.24 678.044L3836.05 800.645C3844.92 805.661 3848.05 816.917 3843.03 825.787C3838.01 834.657 3826.76 837.781 3817.89 832.766L3601.08 710.164C3592.21 705.148 3589.08 693.892 3594.1 685.022Z" fill="url(#paint47_linear_396_1814)"/>
<path d="M3605.81 617.46C3610.82 608.59 3622.08 605.465 3630.95 610.481L3887.91 755.787C3896.78 760.803 3899.91 772.059 3894.89 780.929C3889.87 789.798 3878.62 792.923 3869.75 787.907L3612.79 642.601C3603.92 637.586 3600.79 626.329 3605.81 617.46Z" fill="url(#paint48_linear_396_1814)"/>
</g>
<g clip-path="url(#clip8_396_1814)">
<path fill-rule="evenodd" clip-rule="evenodd" d="M4037.5 3801.69C4001.19 3836.07 3938.94 3859.02 3889 3856.45C3848.43 3854.35 3808.72 3867.41 3778.35 3896.48C3714.27 3957.82 3715.81 4067.46 3781.3 4142.72C3781.31 4142.74 3781.32 4142.76 3781.32 4142.78L3800 4161.5C3863.13 4224.77 3919 4294.91 3966.55 4370.6L4011.78 4442.6C4025.75 4462.94 4051.66 4471.23 4074.71 4462.73C4099.47 4453.6 4113.9 4427.76 4108.78 4401.76L4078.54 4248.31C4074.98 4230.24 4085.01 4212.29 4102.22 4205.94C4119.42 4199.6 4138.71 4206.74 4147.73 4222.8L4224.35 4359.14C4237.33 4382.25 4265.08 4392.53 4289.84 4383.4C4312.89 4374.9 4327.22 4351.78 4324.64 4327.24L4312.3 4243.11C4299.33 4154.67 4296.3 4065.06 4303.24 3975.94L4305.3 3949.58C4305.28 3949.56 4305.27 3949.54 4305.27 3949.52C4306.22 3849.76 4236.22 3765.36 4147.66 3760.31C4105.69 3757.91 4067.01 3773.76 4037.5 3801.69Z" fill="url(#paint49_linear_396_1814)"/>
<mask id="mask2_396_1814" style="mask-type:alpha" maskUnits="userSpaceOnUse" x="3731" y="3760" width="594" height="707">
<path fill-rule="evenodd" clip-rule="evenodd" d="M4037.5 3801.69C4001.19 3836.07 3938.94 3859.02 3889 3856.45C3848.43 3854.35 3808.72 3867.41 3778.35 3896.48C3714.27 3957.82 3715.81 4067.46 3781.3 4142.72C3781.31 4142.74 3781.32 4142.76 3781.32 4142.78L3800 4161.5C3863.13 4224.77 3919 4294.91 3966.55 4370.6L4011.78 4442.6C4025.75 4462.94 4051.66 4471.23 4074.71 4462.73C4099.47 4453.6 4113.9 4427.76 4108.78 4401.76L4078.54 4248.31C4074.98 4230.24 4085.01 4212.29 4102.22 4205.94C4119.42 4199.6 4138.71 4206.74 4147.73 4222.8L4224.35 4359.14C4237.33 4382.25 4265.08 4392.53 4289.84 4383.4C4312.89 4374.9 4327.22 4351.78 4324.64 4327.24L4312.3 4243.11C4299.33 4154.67 4296.3 4065.06 4303.24 3975.94L4305.3 3949.58C4305.28 3949.56 4305.27 3949.54 4305.27 3949.52C4306.22 3849.76 4236.22 3765.36 4147.66 3760.31C4105.69 3757.91 4067.01 3773.76 4037.5 3801.69Z" fill="url(#paint50_linear_396_1814)"/>
</mask>
<g mask="url(#mask2_396_1814)">
<path d="M3897.58 3910.52C3897.4 3910.01 3896.84 3909.75 3896.32 3909.91C3865.71 3919.72 3832.52 3903.74 3821.29 3873.28L3817.81 3863.84C3808.19 3837.77 3831.11 3834.8 3857.18 3825.19C3870.92 3820.12 3885.44 3821.43 3897.52 3827.61C3907.6 3807.09 3925.27 3790.25 3948.41 3781.72C3971.56 3773.18 3999.12 3783.17 4020.11 3792.24C4025.28 3779.7 4035.48 3769.28 4049.22 3764.21C4075.29 3754.6 4104.22 3767.94 4113.84 3794.01L4117.32 3803.46C4128.55 3833.91 4113.68 3867.61 4084.03 3880.03C4083.53 3880.24 4083.27 3880.8 4083.46 3881.31L4086.03 3888.29C4103.66 3936.09 4079.19 3989.13 4031.39 4006.76C3983.59 4024.38 3930.55 3999.92 3912.92 3952.12L3897.58 3910.52Z" fill="url(#paint51_linear_396_1814)"/>
</g>
</g>
<g clip-path="url(#clip9_396_1814)">
<path d="M2096.57 3990.31C2120.83 3981.02 2132.97 3953.82 2123.69 3929.56L2093.75 3851.36C2075.63 3804.01 2022.47 3780.41 1975.2 3798.72L1765.74 3879.84C1761.84 3881.35 1757.65 3881.96 1753.49 3881.62L1465.18 3857.97C1451 3856.8 1437.85 3865.45 1433.31 3878.94C1427.98 3894.77 1436.17 3911.97 1451.81 3917.82L1728.62 4021.2C1754.21 4030.76 1782.87 4027.12 1805.26 4011.45L1984.7 3885.9C2002.84 3873.21 2027.99 3879.24 2038.41 3898.77L2084.9 3985.95C2087.13 3990.14 2092.13 3992.01 2096.57 3990.31Z" fill="url(#paint52_linear_396_1814)"/>
<mask id="mask3_396_1814" style="mask-type:alpha" maskUnits="userSpaceOnUse" x="1431" y="3792" width="696" height="235">
<path d="M2096.57 3990.31C2120.83 3981.02 2132.97 3953.82 2123.69 3929.56L2093.75 3851.36C2075.63 3804.01 2022.47 3780.41 1975.2 3798.72L1765.74 3879.84C1761.84 3881.35 1757.65 3881.96 1753.49 3881.62L1465.18 3857.97C1451 3856.8 1437.85 3865.45 1433.31 3878.94C1427.98 3894.77 1436.17 3911.97 1451.81 3917.82L1728.62 4021.2C1754.21 4030.76 1782.87 4027.12 1805.26 4011.45L1984.7 3885.9C2002.84 3873.21 2027.99 3879.24 2038.41 3898.77L2084.9 3985.95C2087.13 3990.14 2092.13 3992.01 2096.57 3990.31Z" fill="url(#paint53_linear_396_1814)"/>
</mask>
<g mask="url(#mask3_396_1814)">
<rect x="1864.27" y="4000.2" width="138.375" height="184.5" transform="rotate(159.056 1864.27 4000.2)" fill="url(#paint54_linear_396_1814)"/>
<rect x="1838.43" y="4010.09" width="46.125" height="184.5" transform="rotate(159.056 1838.43 4010.09)" fill="url(#paint55_linear_396_1814)"/>
<rect x="1889.27" y="3790.06" width="46.125" height="184.5" transform="rotate(-5.94427 1889.27 3790.06)" fill="url(#paint56_linear_396_1814)"/>
</g>
<path d="M2079.12 4045.39C2088.41 4069.66 2076.27 4096.86 2052 4106.14L1973.8 4136.08C1926.45 4154.2 1873.39 4130.39 1855.45 4082.96L1776 3872.87C1774.52 3868.96 1772.17 3865.43 1769.14 3862.56L1559.03 3663.72C1548.7 3653.94 1546.36 3638.38 1553.36 3626C1561.59 3611.46 1579.87 3606.07 1594.66 3613.81L1856.44 3750.85C1880.65 3763.52 1897.07 3787.29 1900.36 3814.42L1926.7 4031.82C1929.36 4053.8 1950.65 4068.51 1972.15 4063.22L2068.09 4039.62C2072.7 4038.49 2077.43 4040.96 2079.12 4045.39Z" fill="url(#paint57_linear_396_1814)"/>
<mask id="mask4_396_1814" style="mask-type:alpha" maskUnits="userSpaceOnUse" x="1549" y="3610" width="534" height="533">
<path d="M2079.12 4045.39C2088.41 4069.66 2076.27 4096.86 2052 4106.14L1973.8 4136.08C1926.45 4154.2 1873.39 4130.39 1855.45 4082.96L1776 3872.87C1774.52 3868.96 1772.17 3865.43 1769.14 3862.56L1559.03 3663.72C1548.7 3653.94 1546.36 3638.38 1553.36 3626C1561.59 3611.46 1579.87 3606.07 1594.66 3613.81L1856.44 3750.85C1880.65 3763.52 1897.07 3787.29 1900.36 3814.42L1926.7 4031.82C1929.36 4053.8 1950.65 4068.51 1972.15 4063.22L2068.09 4039.62C2072.7 4038.49 2077.43 4040.96 2079.12 4045.39Z" fill="url(#paint58_linear_396_1814)"/>
</mask>
<g mask="url(#mask4_396_1814)">
<path d="M1988.44 4031.7L1933.73 4052.64L1727.69 3682.07L1875.86 3690.13L1988.44 4031.7Z" fill="url(#paint59_linear_396_1814)"/>
</g>
<g filter="url(#filter6_d_396_1814)">
<path d="M1822.68 3896.29C1816.45 3910.25 1822.72 3926.62 1836.67 3932.85L1845.11 3936.61C1859.07 3942.84 1875.43 3936.58 1881.67 3922.62L1887.27 3910.08C1893.5 3896.12 1887.23 3879.75 1873.28 3873.52L1864.84 3869.76C1850.88 3863.53 1834.51 3869.79 1828.28 3883.75L1822.68 3896.29Z" fill="url(#paint60_linear_396_1814)"/>
</g>
<path d="M1836.87 3903.99C1834.79 3908.64 1836.88 3914.09 1841.53 3916.17L1854.28 3921.86C1858.94 3923.94 1864.39 3921.85 1866.47 3917.2L1873.08 3902.38C1875.16 3897.73 1873.07 3892.28 1868.42 3890.2L1855.67 3884.51C1851.01 3882.43 1845.56 3884.52 1843.48 3889.17L1836.87 3903.99Z" fill="url(#paint61_linear_396_1814)"/>
</g>
<g clip-path="url(#clip10_396_1814)">
<path fill-rule="evenodd" clip-rule="evenodd" d="M5860.91 2650.16C5812 2639.72 5757.82 2601.45 5731.64 2558.84C5710.37 2524.22 5677.1 2498.91 5635.95 2490.36C5549.09 2472.33 5459.64 2535.73 5434.73 2632.34C5434.73 2632.36 5434.71 2632.38 5434.7 2632.39L5429.86 2658.39C5413.51 2746.26 5387.38 2832.04 5351.97 2914.11L5318.28 2992.18C5309.44 3015.21 5317.29 3041.26 5337.36 3055.43C5358.91 3070.66 5388.38 3067.91 5406.9 3048.95L5516.19 2937.08C5529.06 2923.9 5549.54 2922 5564.51 2932.57C5579.49 2943.15 5584.53 2963.09 5576.42 2979.63L5507.5 3120.02C5495.82 3143.81 5503.08 3172.5 5524.63 3187.73C5544.7 3201.9 5571.87 3200.6 5590.62 3184.57L5652.95 3126.73C5718.47 3065.92 5790.58 3012.64 5867.94 2967.86L5890.82 2954.61C5890.83 2954.59 5890.84 2954.57 5890.86 2954.56C5973.59 2898.8 6003.45 2793.3 5957.43 2717.47C5935.62 2681.53 5900.65 2658.64 5860.91 2650.16Z" fill="url(#paint62_linear_396_1814)"/>
<path d="M5444.63 2603.08C5427.9 2677.32 5423.68 2765.68 5447.69 2861.47C5457 2898.59 5470.66 2933.67 5487.39 2966.55L5516.19 2937.08C5529.06 2923.9 5549.54 2922 5564.51 2932.57C5579.49 2943.15 5584.53 2963.09 5576.42 2979.63L5540.79 3052.2C5567.79 3088.54 5597.81 3121.13 5628.24 3149.66L5652.95 3126.73C5718.47 3065.92 5790.58 3012.64 5867.94 2967.86L5890.82 2954.61C5890.83 2954.59 5890.84 2954.57 5890.86 2954.56C5973.59 2898.8 6003.45 2793.3 5957.43 2717.47C5935.62 2681.53 5900.65 2658.64 5860.91 2650.16C5812 2639.72 5757.82 2601.45 5731.64 2558.84C5710.37 2524.22 5677.1 2498.91 5635.95 2490.36C5558.21 2474.22 5478.38 2523.32 5444.63 2603.08Z" fill="url(#paint63_linear_396_1814)"/>
<path d="M5444.63 2603.08C5427.9 2677.32 5423.68 2765.68 5447.69 2861.47C5457 2898.59 5470.66 2933.67 5487.39 2966.55L5516.19 2937.08C5529.06 2923.9 5549.54 2922 5564.51 2932.57C5579.49 2943.15 5584.53 2963.09 5576.42 2979.63L5540.79 3052.2C5567.79 3088.54 5597.81 3121.13 5628.24 3149.66L5652.95 3126.73C5718.47 3065.92 5790.58 3012.64 5867.94 2967.86L5890.82 2954.61C5890.83 2954.59 5890.84 2954.57 5890.86 2954.56C5973.59 2898.8 6003.45 2793.3 5957.43 2717.47C5935.62 2681.53 5900.65 2658.64 5860.91 2650.16C5812 2639.72 5757.82 2601.45 5731.64 2558.84C5710.37 2524.22 5677.1 2498.91 5635.95 2490.36C5558.21 2474.22 5478.38 2523.32 5444.63 2603.08Z" fill="url(#paint64_linear_396_1814)" fill-opacity="0.1"/>
<path d="M5444.63 2603.08C5427.9 2677.32 5423.68 2765.68 5447.69 2861.47C5457 2898.59 5470.66 2933.67 5487.39 2966.55L5516.19 2937.08C5529.06 2923.9 5549.54 2922 5564.51 2932.57C5579.49 2943.15 5584.53 2963.09 5576.42 2979.63L5540.79 3052.2C5567.79 3088.54 5597.81 3121.13 5628.24 3149.66L5652.95 3126.73C5718.47 3065.92 5790.58 3012.64 5867.94 2967.86L5890.82 2954.61C5890.83 2954.59 5890.84 2954.57 5890.86 2954.56C5973.59 2898.8 6003.45 2793.3 5957.43 2717.47C5935.62 2681.53 5900.65 2658.64 5860.91 2650.16C5812 2639.72 5757.82 2601.45 5731.64 2558.84C5710.37 2524.22 5677.1 2498.91 5635.95 2490.36C5558.21 2474.22 5478.38 2523.32 5444.63 2603.08Z" fill="url(#paint65_linear_396_1814)" fill-opacity="0.1"/>
<path d="M5465.78 2918.24C5461.12 2906.23 5456.91 2893.97 5453.18 2881.46C5473.73 2843.78 5488.73 2803.24 5497.65 2761.07L5518.69 2661.61C5532.95 2594.22 5618.35 2572.5 5663.07 2624.9L5693.05 2660.02C5713.05 2683.46 5738.61 2701.51 5767.39 2712.54L5815.11 2730.81C5878.59 2755.13 5887.54 2841.26 5830.41 2878.11L5739.25 2936.92C5691.61 2967.64 5650.32 3007.23 5617.61 3053.53L5582.57 3103.13C5577.9 3097.94 5573.27 3092.66 5568.7 3087.27L5623.33 2990.24C5638.41 2963.46 5638.36 2930.73 5623.2 2903.99C5611.6 2883.54 5591.48 2869.32 5568.33 2865.23C5538.06 2859.87 5507.19 2870.76 5486.99 2893.92L5465.78 2918.24Z" fill="url(#paint66_radial_396_1814)"/>
</g>
<g clip-path="url(#clip11_396_1814)">
<rect x="2134.68" y="773.234" width="92.25" height="55.35" rx="2" transform="rotate(28.5986 2134.68 773.234)" fill="url(#paint67_linear_396_1814)"/>
<rect x="2192.09" y="667.94" width="92.25" height="55.35" rx="2" transform="rotate(28.5986 2192.09 667.94)" fill="url(#paint68_linear_396_1814)"/>
<path d="M2257.13 471.176C2183.12 434.781 2093.57 463.202 2054.09 535.618C2013.89 609.36 2040.23 701.717 2113.28 743.157L2389.58 899.888C2434.42 925.327 2491.41 909.073 2516.09 863.806L2584.09 739.078C2609.2 693.007 2590.89 635.292 2543.8 612.138L2257.13 471.176Z" fill="url(#paint69_linear_396_1814)"/>
<path d="M1963.82 1006.8C1893.68 964.629 1869.25 874.664 1908.42 802.808C1948.8 728.753 2041.56 701.449 2115.61 741.823L2394.6 893.922C2439.33 918.309 2455.82 974.342 2431.44 1019.07L2367.1 1137.08C2341.99 1183.15 2283.55 1199.02 2238.58 1171.98L1963.82 1006.8Z" fill="url(#paint70_linear_396_1814)"/>
<path fill-rule="evenodd" clip-rule="evenodd" d="M2028.78 1094.37C2023.02 1083.01 2027.55 1069.13 2038.91 1063.37C2078.07 1043.52 2182.54 964.908 2263.02 817.275C2343.52 669.628 2350.08 544.576 2344.43 503.954C2342.68 491.339 2351.48 479.689 2364.1 477.935C2376.72 476.181 2388.37 484.985 2390.12 497.601C2397.28 549.111 2388.18 684.058 2303.52 839.354C2218.85 994.664 2107.76 1080.18 2059.78 1104.51C2048.42 1110.27 2034.54 1105.73 2028.78 1094.37Z" fill="url(#paint71_linear_396_1814)"/>
<path fill-rule="evenodd" clip-rule="evenodd" d="M2364.9 477.838C2352.23 479.15 2343.03 490.484 2344.34 503.153C2348.86 546.82 2339.38 677.217 2258.89 824.849C2178.4 972.496 2076.85 1045.76 2039.64 1063.02C2028.09 1068.38 2023.06 1082.09 2028.42 1093.65C2033.78 1105.2 2047.5 1110.22 2059.05 1104.86C2106.23 1082.98 2214.73 1002.22 2299.39 846.928C2384.06 691.618 2395.76 551.918 2390.22 498.404C2388.91 485.734 2377.57 476.527 2364.9 477.838Z" fill="url(#paint72_radial_396_1814)" fill-opacity="0.3"/>
<path fill-rule="evenodd" clip-rule="evenodd" d="M2364.9 477.838C2352.23 479.15 2343.03 490.484 2344.34 503.153C2348.86 546.82 2339.38 677.217 2258.89 824.849C2178.4 972.496 2076.85 1045.76 2039.64 1063.02C2028.09 1068.38 2023.06 1082.09 2028.42 1093.65C2033.78 1105.2 2047.5 1110.22 2059.05 1104.86C2106.23 1082.98 2214.73 1002.22 2299.39 846.928C2384.06 691.618 2395.76 551.918 2390.22 498.404C2388.91 485.734 2377.57 476.527 2364.9 477.838Z" fill="url(#paint73_radial_396_1814)" fill-opacity="0.3"/>
<path d="M2098.69 1013.11C2086.94 1008.15 2084.64 992.494 2094.46 984.365C2129.76 955.169 2152.47 913.514 2157.89 868.032C2159.4 855.369 2173.8 848.822 2184.33 856.01L2201.3 867.585C2225.56 884.142 2251.41 898.237 2278.48 909.661L2297.39 917.649C2309.14 922.608 2311.44 938.261 2301.62 946.39C2266.32 975.587 2243.61 1017.24 2238.19 1062.72C2236.68 1075.39 2222.28 1081.93 2211.75 1074.75L2194.78 1063.17C2170.52 1046.61 2144.67 1032.52 2117.61 1021.09L2098.69 1013.11Z" fill="#B4A9FC"/>
<g filter="url(#filter7_d_396_1814)">
<path d="M2163.45 1009.56C2145.55 999.803 2138.96 977.39 2148.71 959.497L2166.37 927.099C2176.13 909.207 2198.54 902.609 2216.44 912.364L2232.63 921.196C2250.53 930.951 2257.12 953.364 2247.37 971.257L2229.71 1003.65C2219.95 1021.55 2197.54 1028.14 2179.65 1018.39L2163.45 1009.56Z" fill="url(#paint74_linear_396_1814)"/>
<path d="M2163.93 1008.68C2146.52 999.19 2140.1 977.384 2149.59 959.976L2167.25 927.578C2176.74 910.17 2198.55 903.752 2215.96 913.242L2232.16 922.074C2249.56 931.564 2255.98 953.37 2246.49 970.778L2228.83 1003.18C2219.34 1020.58 2197.53 1027 2180.12 1017.51L2163.93 1008.68Z" stroke="url(#paint75_radial_396_1814)" stroke-width="2"/>
</g>
<g filter="url(#filter8_d_396_1814)">
<path d="M2154.23 920.476C2143.04 914.379 2138.92 900.371 2145.02 889.188C2151.11 878.005 2165.12 873.881 2176.3 879.978L2200.6 893.226C2211.79 899.322 2215.91 913.33 2209.81 924.514C2203.72 935.697 2189.71 939.82 2178.52 933.723L2154.23 920.476Z" fill="url(#paint76_linear_396_1814)"/>
</g>
<g filter="url(#filter9_d_396_1814)">
<path d="M2235.22 964.633C2224.04 958.536 2219.91 944.528 2226.01 933.345C2232.11 922.162 2246.12 918.039 2257.3 924.136L2281.6 937.383C2292.78 943.48 2296.9 957.488 2290.81 968.671C2284.71 979.854 2270.7 983.977 2259.52 977.88L2235.22 964.633Z" fill="url(#paint77_linear_396_1814)"/>
</g>
<g filter="url(#filter10_d_396_1814)">
<path d="M2195.48 1037.53C2184.3 1031.43 2180.17 1017.42 2186.27 1006.24C2192.37 995.057 2206.37 990.934 2217.56 997.031L2241.86 1010.28C2253.04 1016.38 2257.16 1030.38 2251.06 1041.57C2244.97 1052.75 2230.96 1056.87 2219.78 1050.78L2195.48 1037.53Z" fill="url(#paint78_linear_396_1814)"/>
</g>
<g filter="url(#filter11_d_396_1814)">
<path d="M2114.48 993.371C2103.3 987.275 2099.18 973.266 2105.27 962.083C2111.37 950.9 2125.38 946.777 2136.56 952.874L2160.86 966.121C2172.04 972.218 2176.17 986.226 2170.07 997.409C2163.97 1008.59 2149.96 1012.72 2138.78 1006.62L2114.48 993.371Z" fill="url(#paint79_linear_396_1814)"/>
</g>
<path d="M2248.82 737.724C2237.07 732.764 2234.77 717.111 2244.6 708.983C2279.89 679.786 2302.6 638.131 2308.02 592.649C2309.53 579.986 2323.93 573.439 2334.47 580.627L2351.43 592.202C2375.69 608.759 2401.55 622.854 2428.61 634.279L2447.53 642.266C2459.28 647.225 2461.58 662.878 2451.75 671.007C2416.46 700.204 2393.75 741.858 2388.33 787.341C2386.82 800.003 2372.42 806.551 2361.88 799.363L2344.92 787.788C2320.66 771.231 2294.8 757.135 2267.74 745.711L2248.82 737.724Z" fill="#B4A9FC"/>
<g filter="url(#filter12_d_396_1814)">
<rect x="2281.18" y="716.514" width="110.7" height="92.25" rx="4" transform="rotate(-61.4015 2281.18 716.514)" fill="url(#paint80_linear_396_1814)"/>
<rect x="2282.54" y="716.114" width="108.7" height="90.25" rx="3" transform="rotate(-61.4015 2282.54 716.114)" stroke="url(#paint81_radial_396_1814)" stroke-width="2"/>
</g>
<g filter="url(#filter13_d_396_1814)">
<path d="M2304.36 645.093C2293.18 638.996 2289.05 624.988 2295.15 613.805C2301.25 602.622 2315.26 598.499 2326.44 604.596L2350.74 617.843C2361.92 623.94 2366.04 637.948 2359.95 649.131C2353.85 660.314 2339.84 664.437 2328.66 658.34L2304.36 645.093Z" fill="url(#paint82_linear_396_1814)"/>
</g>
<g filter="url(#filter14_d_396_1814)">
<path d="M2385.36 689.25C2374.17 683.153 2370.05 669.145 2376.15 657.962C2382.24 646.779 2396.25 642.656 2407.43 648.753L2431.73 662C2442.92 668.097 2447.04 682.105 2440.94 693.288C2434.84 704.471 2420.84 708.594 2409.65 702.497L2385.36 689.25Z" fill="url(#paint83_linear_396_1814)"/>
</g>
<g filter="url(#filter15_d_396_1814)">
<path d="M2345.61 762.146C2334.43 756.049 2330.31 742.041 2336.4 730.858C2342.5 719.675 2356.51 715.551 2367.69 721.648L2391.99 734.895C2403.17 740.992 2407.3 755 2401.2 766.184C2395.1 777.367 2381.09 781.49 2369.91 775.393L2345.61 762.146Z" fill="url(#paint84_linear_396_1814)"/>
</g>
<g filter="url(#filter16_d_396_1814)">
<path d="M2264.62 717.989C2253.44 711.892 2249.31 697.884 2255.41 686.7C2261.51 675.517 2275.51 671.394 2286.7 677.491L2311 690.738C2322.18 696.835 2326.3 710.843 2320.21 722.026C2314.11 733.209 2300.1 737.333 2288.92 731.236L2264.62 717.989Z" fill="url(#paint85_linear_396_1814)"/>
</g>
</g>
<g clip-path="url(#clip12_396_1814)">
<path fill-rule="evenodd" clip-rule="evenodd" d="M3108.34 1707.7C3059.08 1699.08 3003.51 1662.84 2975.77 1621.24C2953.23 1587.43 2919.05 1563.37 2877.6 1556.36C2790.14 1541.56 2703.1 1608.24 2681.8 1705.71C2681.79 1705.73 2681.78 1705.75 2681.76 1705.76L2677.89 1731.92C2664.81 1820.34 2641.89 1907.02 2609.55 1990.35L2578.78 2069.62C2570.8 2092.97 2579.61 2118.7 2600.19 2132.12C2622.29 2146.54 2651.64 2142.7 2669.44 2123.06L2774.5 2007.21C2786.88 1993.57 2807.27 1990.9 2822.63 2000.92C2837.99 2010.94 2843.77 2030.67 2836.27 2047.5L2772.61 2190.35C2761.82 2214.56 2770.14 2242.96 2792.24 2257.38C2812.82 2270.8 2839.93 2268.49 2858.07 2251.77L2918.21 2191.66C2981.43 2128.46 3051.51 2072.54 3127.15 2024.92L3149.53 2010.83C3149.53 2010.81 3149.55 2010.79 3149.57 2010.78C3230.17 1951.99 3256.1 1845.45 3207.29 1771.38C3184.17 1736.28 3148.36 1714.7 3108.34 1707.7Z" fill="url(#paint86_linear_396_1814)"/>
<mask id="mask5_396_1814" style="mask-type:alpha" maskUnits="userSpaceOnUse" x="2464" y="1566" width="821" height="719">
<rect x="2671.4" y="1561.81" width="738" height="387.45" rx="12" transform="rotate(33.1116 2671.4 1561.81)" fill="#1B2C3B"/>
</mask>
<g mask="url(#mask5_396_1814)">
<rect x="2671.4" y="1561.81" width="738" height="387.45" rx="12" transform="rotate(33.1116 2671.4 1561.81)" fill="#1B2C3B"/>
<path fill-rule="evenodd" clip-rule="evenodd" d="M3110.96 1709.41C3061.37 1700.58 3005.34 1664.03 2977.27 1622.22C2954.47 1588.24 2919.99 1563.99 2878.28 1556.8C2790.24 1541.63 2702.94 1608.14 2681.89 1705.77C2681.89 1705.79 2681.87 1705.81 2681.85 1705.82L2678.06 1732.03C2665.25 1820.62 2642.52 1907.44 2610.31 1990.85L2579.66 2070.2C2571.72 2093.57 2580.69 2119.41 2601.44 2132.94C2623.73 2147.47 2653.23 2143.74 2671.07 2124.12L2776.3 2008.39C2788.7 1994.76 2809.2 1992.16 2824.69 2002.26C2840.18 2012.36 2846.07 2032.17 2838.59 2049.01L2775.11 2191.98C2764.35 2216.21 2772.82 2244.71 2795.11 2259.25C2815.86 2272.78 2843.11 2270.57 2861.31 2253.88L2921.56 2193.85C2984.91 2130.74 3055.19 2074.94 3131.1 2027.49L3153.55 2013.45C3153.56 2013.43 3153.57 2013.41 3153.59 2013.4C3234.45 1954.77 3260.11 1848.07 3210.74 1773.62C3187.34 1738.35 3151.24 1716.58 3110.96 1709.41Z" fill="url(#paint87_linear_396_1814)"/>
<path d="M2819.3 1942.72C2832.36 1944.13 2844.51 1948.74 2854.88 1955.96C2865.67 1962.54 2874.79 1971.8 2881.35 1983.19C2897.45 2011.13 2897.56 2046.77 2881.64 2077.13L2827.65 2180.04C2825.42 2184.28 2826 2189.43 2829.12 2192.89C2833.95 2198.25 2842.56 2197.31 2846.62 2191.09L2875.69 2146.52C2910.25 2093.53 2953.91 2047.18 3004.3 2009.99L3100.74 1938.83C3161.17 1894.23 3151.55 1801.1 3084.27 1779.57L3033.72 1763.39C3019.26 1758.76 3005.56 1752.35 2992.9 1744.34C2980.46 1735.98 2969.08 1726.03 2959.01 1714.67L2923.82 1674.92C2876.99 1622.04 2787.89 1650.78 2771.44 1724.07L2745.2 1841.01C2731.48 1902.12 2706.67 1960.76 2672.11 2013.75L2643.05 2058.32C2638.99 2064.54 2641.6 2072.8 2648.46 2075.06C2652.88 2076.52 2657.82 2074.98 2660.81 2071.23L2733.22 1980.33C2754.57 1953.52 2787.24 1939.25 2819.3 1942.72Z" fill="url(#paint88_radial_396_1814)"/>
<path fill-rule="evenodd" clip-rule="evenodd" d="M2641.84 1674.69C2664.1 1640.55 2709.83 1630.93 2743.97 1653.19L2767.15 1668.31L2757.07 1683.76L2733.89 1668.64C2708.28 1651.95 2673.99 1659.17 2657.29 1684.77L2642.17 1707.95L2626.72 1697.87L2641.84 1674.69Z" fill="#617587"/>
<path fill-rule="evenodd" clip-rule="evenodd" d="M2551.13 1813.78C2528.86 1847.92 2538.49 1893.64 2572.63 1915.91L2595.81 1931.02L2605.89 1915.57L2582.71 1900.45C2557.1 1883.75 2549.88 1849.46 2566.58 1823.86L2581.7 1800.67L2566.25 1790.6L2551.13 1813.78Z" fill="#617587"/>
<path fill-rule="evenodd" clip-rule="evenodd" d="M3198.18 2037.52C3220.44 2003.38 3210.82 1957.66 3176.68 1935.39L3153.49 1920.28L3143.42 1935.73L3166.6 1950.85C3192.2 1967.55 3199.42 2001.84 3182.72 2027.45L3167.6 2050.63L3183.06 2060.71L3198.18 2037.52Z" fill="#617587"/>
<path fill-rule="evenodd" clip-rule="evenodd" d="M3107.47 2176.61C3085.2 2210.75 3039.48 2220.38 3005.34 2198.11L2982.16 2182.99L2992.24 2167.54L3015.42 2182.66C3041.02 2199.36 3075.32 2192.14 3092.01 2166.53L3107.13 2143.35L3122.59 2153.43L3107.47 2176.61Z" fill="#617587"/>
</g>
</g>
<g clip-path="url(#clip13_396_1814)">
<rect x="688.715" y="1237" width="738" height="738" rx="16" transform="rotate(68.9422 688.715 1237)" fill="#1B2C3B"/>
<path fill-rule="evenodd" clip-rule="evenodd" d="M731.669 1685.35C703.172 1655.96 683.641 1605.24 685.075 1564.33C686.239 1531.09 675.068 1498.72 650.98 1474.15C600.145 1422.3 510.831 1424.66 450.373 1479.02C450.36 1479.03 450.342 1479.04 450.324 1479.04L435.321 1494.52C384.604 1546.83 328.201 1593.26 267.162 1632.95L209.098 1670.69C192.708 1682.33 186.3 1703.62 193.533 1722.41C201.301 1742.58 222.544 1754.14 243.667 1749.69L368.295 1723.4C382.973 1720.31 397.735 1728.34 403.133 1742.36C408.531 1756.38 402.968 1772.24 390.004 1779.79L279.928 1843.87C261.272 1854.73 253.266 1877.55 261.034 1897.73C268.267 1916.51 287.299 1928.01 307.26 1925.65L375.648 1914.71C447.538 1903.21 520.516 1899.83 593.222 1904.63L614.73 1906.04C614.743 1906.03 614.761 1906.02 614.779 1906.02C696.082 1905.8 763.915 1847.66 766.855 1775.11C768.249 1740.73 754.823 1709.22 731.669 1685.35Z" fill="url(#paint89_linear_396_1814)"/>
<path d="M427.922 1700.34C435.764 1707.59 441.553 1716.49 444.981 1726.25C448.98 1735.78 450.656 1746.27 449.699 1756.91C447.35 1783.02 431.066 1806.44 406.784 1818.63L324.454 1859.97C321.063 1861.67 319.078 1865.33 319.517 1869.1C320.199 1874.96 326.23 1878.51 331.722 1876.4L371.075 1861.25C417.858 1843.23 467.514 1833.98 517.346 1833.99L612.706 1834.01C672.466 1834.02 708.937 1768.31 675.075 1721.63L649.625 1686.55C642.348 1676.52 636.383 1665.69 631.823 1654.31C627.571 1642.81 624.734 1630.78 623.406 1618.45L618.759 1575.37C612.576 1518.03 541.453 1493.75 497.131 1533.83L426.407 1597.8C389.448 1631.22 346.408 1657.66 299.625 1675.67L260.272 1690.82C254.78 1692.94 252.688 1699.62 256.11 1704.42C258.316 1707.51 262.24 1708.9 265.897 1707.88L354.691 1683.33C380.879 1676.09 408.667 1682.55 427.922 1700.34Z" fill="url(#paint90_radial_396_1814)"/>
<path d="M687.008 2028.47C687.008 2028.47 568.008 1897.26 494.783 1707.07C421.558 1516.89 421.838 1339.75 421.838 1339.75L103.307 1462.4L368.477 2151.11L687.008 2028.47Z" fill="url(#paint91_linear_396_1814)"/>
</g>
<g clip-path="url(#clip14_396_1814)">
<path d="M2837.8 4081.08C2766.07 4040.36 2675 4063.42 2631.29 4133.36C2586.78 4204.59 2607.59 4298.35 2678.06 4344.05L2944.56 4516.9C2987.82 4544.95 3045.67 4532.11 3072.99 4488.39L3148.28 4367.92C3176.08 4323.42 3161.22 4264.72 3115.59 4238.81L2837.8 4081.08Z" fill="url(#paint92_linear_396_1814)"/>
<path d="M2513.21 4598.35C2445.7 4552.1 2426.65 4460.84 2470.02 4391.44C2514.72 4319.91 2608.94 4298.16 2680.46 4342.85L2949.93 4511.24C2993.14 4538.24 3006.28 4595.15 2979.28 4638.36L2908.06 4752.34C2880.25 4796.84 2820.97 4809.21 2777.68 4779.55L2513.21 4598.35Z" fill="url(#paint93_linear_396_1814)"/>
<path fill-rule="evenodd" clip-rule="evenodd" d="M2572.86 4689.63C2567.78 4677.95 2573.14 4664.36 2584.82 4659.29C2625.08 4641.79 2734.03 4569.52 2823.14 4426.92C2912.25 4284.31 2926.23 4159.87 2923 4118.98C2922 4106.29 2931.48 4095.18 2944.17 4094.18C2956.87 4093.18 2967.98 4102.66 2968.98 4115.35C2973.07 4167.2 2955.98 4301.37 2862.25 4451.37C2768.51 4601.38 2652.54 4680.14 2603.2 4701.59C2591.52 4706.67 2577.94 4701.31 2572.86 4689.63Z" fill="url(#paint94_linear_396_1814)"/>
<g opacity="0.4">
<path fill-rule="evenodd" clip-rule="evenodd" d="M2944.98 4094.13C2932.26 4094.69 2922.39 4105.45 2922.95 4118.18C2924.87 4162.04 2907.67 4291.64 2818.57 4434.24C2729.45 4576.85 2623.73 4643.96 2585.56 4658.98C2573.71 4663.64 2567.89 4677.03 2572.55 4688.88C2577.22 4700.74 2590.6 4706.56 2602.46 4701.9C2650.85 4682.85 2763.95 4608.68 2857.68 4458.68C2951.42 4308.67 2971.38 4169.91 2969.03 4116.16C2968.47 4103.43 2957.71 4093.57 2944.98 4094.13Z" fill="url(#paint95_radial_396_1814)" fill-opacity="0.3"/>
<path fill-rule="evenodd" clip-rule="evenodd" d="M2944.98 4094.13C2932.26 4094.69 2922.39 4105.45 2922.95 4118.18C2924.87 4162.04 2907.67 4291.64 2818.57 4434.24C2729.45 4576.85 2623.73 4643.96 2585.56 4658.98C2573.71 4663.64 2567.89 4677.03 2572.55 4688.88C2577.22 4700.74 2590.6 4706.56 2602.46 4701.9C2650.85 4682.85 2763.95 4608.68 2857.68 4458.68C2951.42 4308.67 2971.38 4169.91 2969.03 4116.16C2968.47 4103.43 2957.71 4093.57 2944.98 4094.13Z" fill="url(#paint96_radial_396_1814)" fill-opacity="0.3"/>
</g>
<g opacity="0.4">
<path fill-rule="evenodd" clip-rule="evenodd" d="M2572.86 4689.63C2567.78 4677.95 2573.14 4664.36 2584.82 4659.29C2625.08 4641.79 2734.03 4569.52 2823.14 4426.92C2912.25 4284.31 2926.23 4159.87 2923 4118.98C2922 4106.29 2931.48 4095.18 2944.18 4094.18C2956.87 4093.17 2967.98 4102.66 2968.98 4115.35C2973.08 4167.2 2955.98 4301.37 2862.25 4451.36C2768.51 4601.38 2652.55 4680.14 2603.2 4701.59C2591.52 4706.67 2577.94 4701.31 2572.86 4689.63Z" fill="url(#paint97_radial_396_1814)" fill-opacity="0.3"/>
<path fill-rule="evenodd" clip-rule="evenodd" d="M2572.86 4689.63C2567.78 4677.95 2573.14 4664.36 2584.82 4659.29C2625.08 4641.79 2734.03 4569.52 2823.14 4426.92C2912.25 4284.31 2926.23 4159.87 2923 4118.98C2922 4106.29 2931.48 4095.18 2944.18 4094.18C2956.87 4093.17 2967.98 4102.66 2968.98 4115.35C2973.08 4167.2 2955.98 4301.37 2862.25 4451.36C2768.51 4601.38 2652.55 4680.14 2603.2 4701.59C2591.52 4706.67 2577.94 4701.31 2572.86 4689.63Z" fill="url(#paint98_radial_396_1814)" fill-opacity="0.3"/>
</g>
<g filter="url(#filter17_d_396_1814)">
<path d="M2682.35 4627.01C2652.11 4608.11 2642.91 4568.27 2661.81 4538.02L2684.79 4501.24C2703.69 4471 2743.53 4461.8 2773.78 4480.7L2810.56 4503.68C2840.8 4522.58 2850 4562.42 2831.1 4592.67L2808.12 4629.45C2789.22 4659.69 2749.38 4668.89 2719.13 4649.99L2682.35 4627.01Z" fill="url(#paint99_linear_396_1814)"/>
<path d="M2682.88 4626.16C2653.11 4607.55 2644.05 4568.33 2662.66 4538.55L2685.64 4501.77C2704.25 4472 2743.47 4462.94 2773.25 4481.55L2810.03 4504.53C2839.8 4523.14 2848.86 4562.36 2830.25 4592.14L2807.27 4628.92C2788.66 4658.69 2749.44 4667.75 2719.66 4649.14L2682.88 4626.16Z" stroke="url(#paint100_radial_396_1814)" stroke-width="2"/>
</g>
<g filter="url(#filter18_d_396_1814)">
<path d="M2848.57 4361.02C2818.32 4342.12 2809.13 4302.28 2828.02 4272.03L2851.01 4235.26C2869.91 4205.01 2909.75 4195.81 2939.99 4214.71L2976.77 4237.7C3007.01 4256.6 3016.21 4296.43 2997.31 4326.68L2974.33 4363.46C2955.43 4393.7 2915.59 4402.9 2885.35 4384L2848.57 4361.02Z" fill="url(#paint101_linear_396_1814)"/>
<path d="M2849.1 4360.17C2819.32 4341.56 2810.27 4302.34 2828.87 4272.56L2851.86 4235.79C2870.46 4206.01 2909.68 4196.95 2939.46 4215.56L2976.24 4238.54C3006.01 4257.15 3015.07 4296.37 2996.46 4326.15L2973.48 4362.93C2954.87 4392.7 2915.65 4401.76 2885.88 4383.15L2849.1 4360.17Z" stroke="url(#paint102_radial_396_1814)" stroke-width="2"/>
</g>
</g>
<g clip-path="url(#clip15_396_1814)">
<path fill-rule="evenodd" clip-rule="evenodd" d="M1477.33 2351.05C1506 2392.02 1519.57 2456.96 1509.7 2505.98C1501.67 2545.81 1508.76 2587 1533.06 2621.31C1584.33 2693.69 1693 2708.26 1777.07 2654.53C1777.08 2654.52 1777.11 2654.51 1777.13 2654.52V2654.52L1798.39 2638.79C1870.24 2585.62 1947.81 2540.66 2029.66 2504.73L2107.52 2470.55C2129.69 2459.72 2141.69 2435.31 2136.67 2411.26C2131.27 2385.43 2107.83 2367.36 2081.36 2368.61L1925.14 2376C1906.74 2376.87 1890.45 2364.31 1886.7 2346.36C1882.95 2328.42 1892.85 2310.39 1910.05 2303.82L2056.16 2248.04C2080.93 2238.59 2095.17 2212.65 2089.77 2186.82C2084.75 2162.77 2063.98 2145.2 2039.32 2144.16L1954.3 2144.01C1864.91 2143.86 1775.82 2133.71 1688.69 2113.76L1662.92 2107.86V2107.86C1662.9 2107.87 1662.88 2107.88 1662.85 2107.88C1564.31 2092.3 1470.56 2149.15 1452.56 2236.02C1444.03 2277.18 1454.03 2317.76 1477.33 2351.05Z" fill="url(#paint103_linear_396_1814)"/>
</g>
<defs>
<filter id="filter0_f_396_1814" x="596.08" y="2924.78" width="196.05" height="187.984" filterUnits="userSpaceOnUse" color-interpolation-filters="sRGB">
<feFlood flood-opacity="0" result="BackgroundImageFix"/>
<feBlend mode="normal" in="SourceGraphic" in2="BackgroundImageFix" result="shape"/>
<feGaussianBlur stdDeviation="2" result="effect1_foregroundBlur_396_1814"/>
</filter>
<filter id="filter1_f_396_1814" x="815.463" y="3362.81" width="125.708" height="120.744" filterUnits="userSpaceOnUse" color-interpolation-filters="sRGB">
<feFlood flood-opacity="0" result="BackgroundImageFix"/>
<feBlend mode="normal" in="SourceGraphic" in2="BackgroundImageFix" result="shape"/>
<feGaussianBlur stdDeviation="2" result="effect1_foregroundBlur_396_1814"/>
</filter>
<filter id="filter2_f_396_1814" x="4094.34" y="1334.28" width="404.616" height="354.321" filterUnits="userSpaceOnUse" color-interpolation-filters="sRGB">
<feFlood flood-opacity="0" result="BackgroundImageFix"/>
<feBlend mode="normal" in="SourceGraphic" in2="BackgroundImageFix" result="shape"/>
<feGaussianBlur stdDeviation="0.5" result="effect1_foregroundBlur_396_1814"/>
</filter>
<filter id="filter3_f_396_1814" x="4090.34" y="1309.91" width="414.465" height="382.688" filterUnits="userSpaceOnUse" color-interpolation-filters="sRGB">
<feFlood flood-opacity="0" result="BackgroundImageFix"/>
<feBlend mode="normal" in="SourceGraphic" in2="BackgroundImageFix" result="shape"/>
<feGaussianBlur stdDeviation="2.5" result="effect1_foregroundBlur_396_1814"/>
</filter>
<filter id="filter4_f_396_1814" x="4090.34" y="1330.85" width="439.365" height="361.749" filterUnits="userSpaceOnUse" color-interpolation-filters="sRGB">
<feFlood flood-opacity="0" result="BackgroundImageFix"/>
<feBlend mode="normal" in="SourceGraphic" in2="BackgroundImageFix" result="shape"/>
<feGaussianBlur stdDeviation="2.5" result="effect1_foregroundBlur_396_1814"/>
</filter>
<filter id="filter5_f_396_1814" x="2490.8" y="3054.44" width="178.245" height="170.844" filterUnits="userSpaceOnUse" color-interpolation-filters="sRGB">
<feFlood flood-opacity="0" result="BackgroundImageFix"/>
<feBlend mode="normal" in="SourceGraphic" in2="BackgroundImageFix" result="shape"/>
<feGaussianBlur stdDeviation="2" result="effect1_foregroundBlur_396_1814"/>
</filter>
<filter id="filter6_d_396_1814" x="1817.27" y="3865.34" width="77.4053" height="79.6797" filterUnits="userSpaceOnUse" color-interpolation-filters="sRGB">
<feFlood flood-opacity="0" result="BackgroundImageFix"/>
<feColorMatrix in="SourceAlpha" type="matrix" values="0 0 0 0 0 0 0 0 0 0 0 0 0 0 0 0 0 0 127 0" result="hardAlpha"/>
<feOffset dx="1" dy="2"/>
<feGaussianBlur stdDeviation="2"/>
<feComposite in2="hardAlpha" operator="out"/>
<feColorMatrix type="matrix" values="0 0 0 0 0.0684722 0 0 0 0 0.0823278 0 0 0 0 0.414861 0 0 0 0.15 0"/>
<feBlend mode="normal" in2="BackgroundImageFix" result="effect1_dropShadow_396_1814"/>
<feBlend mode="normal" in="SourceGraphic" in2="effect1_dropShadow_396_1814" result="shape"/>
</filter>
<filter id="filter7_d_396_1814" x="2136.2" y="903.855" width="123.676" height="131.043" filterUnits="userSpaceOnUse" color-interpolation-filters="sRGB">
<feFlood flood-opacity="0" result="BackgroundImageFix"/>
<feColorMatrix in="SourceAlpha" type="matrix" values="0 0 0 0 0 0 0 0 0 0 0 0 0 0 0 0 0 0 127 0" result="hardAlpha"/>
<feOffset dy="4"/>
<feGaussianBlur stdDeviation="4"/>
<feComposite in2="hardAlpha" operator="out"/>
<feColorMatrix type="matrix" values="0 0 0 0 0.148194 0 0 0 0 0.235583 0 0 0 0 0.585139 0 0 0 0.13 0"/>
<feBlend mode="normal" in2="BackgroundImageFix" result="effect1_dropShadow_396_1814"/>
<feBlend mode="normal" in="SourceGraphic" in2="effect1_dropShadow_396_1814" result="shape"/>
</filter>
<filter id="filter8_d_396_1814" x="2134.2" y="873.16" width="86.4316" height="75.3809" filterUnits="userSpaceOnUse" color-interpolation-filters="sRGB">
<feFlood flood-opacity="0" result="BackgroundImageFix"/>
<feColorMatrix in="SourceAlpha" type="matrix" values="0 0 0 0 0 0 0 0 0 0 0 0 0 0 0 0 0 0 127 0" result="hardAlpha"/>
<feOffset dy="4"/>
<feGaussianBlur stdDeviation="4"/>
<feComposite in2="hardAlpha" operator="out"/>
<feColorMatrix type="matrix" values="0 0 0 0 0.148194 0 0 0 0 0.235583 0 0 0 0 0.585139 0 0 0 0.13 0"/>
<feBlend mode="normal" in2="BackgroundImageFix" result="effect1_dropShadow_396_1814"/>
<feBlend mode="normal" in="SourceGraphic" in2="effect1_dropShadow_396_1814" result="shape"/>
</filter>
<filter id="filter9_d_396_1814" x="2215.19" y="917.317" width="86.4316" height="75.3809" filterUnits="userSpaceOnUse" color-interpolation-filters="sRGB">
<feFlood flood-opacity="0" result="BackgroundImageFix"/>
<feColorMatrix in="SourceAlpha" type="matrix" values="0 0 0 0 0 0 0 0 0 0 0 0 0 0 0 0 0 0 127 0" result="hardAlpha"/>
<feOffset dy="4"/>
<feGaussianBlur stdDeviation="4"/>
<feComposite in2="hardAlpha" operator="out"/>
<feColorMatrix type="matrix" values="0 0 0 0 0.148194 0 0 0 0 0.235583 0 0 0 0 0.585139 0 0 0 0.13 0"/>
<feBlend mode="normal" in2="BackgroundImageFix" result="effect1_dropShadow_396_1814"/>
<feBlend mode="normal" in="SourceGraphic" in2="effect1_dropShadow_396_1814" result="shape"/>
</filter>
<filter id="filter10_d_396_1814" x="2175.45" y="990.213" width="86.4316" height="75.3809" filterUnits="userSpaceOnUse" color-interpolation-filters="sRGB">
<feFlood flood-opacity="0" result="BackgroundImageFix"/>
<feColorMatrix in="SourceAlpha" type="matrix" values="0 0 0 0 0 0 0 0 0 0 0 0 0 0 0 0 0 0 127 0" result="hardAlpha"/>
<feOffset dy="4"/>
<feGaussianBlur stdDeviation="4"/>
<feComposite in2="hardAlpha" operator="out"/>
<feColorMatrix type="matrix" values="0 0 0 0 0.148194 0 0 0 0 0.235583 0 0 0 0 0.585139 0 0 0 0.13 0"/>
<feBlend mode="normal" in2="BackgroundImageFix" result="effect1_dropShadow_396_1814"/>
<feBlend mode="normal" in="SourceGraphic" in2="effect1_dropShadow_396_1814" result="shape"/>
</filter>
<filter id="filter11_d_396_1814" x="2094.46" y="946.056" width="86.4316" height="75.3809" filterUnits="userSpaceOnUse" color-interpolation-filters="sRGB">
<feFlood flood-opacity="0" result="BackgroundImageFix"/>
<feColorMatrix in="SourceAlpha" type="matrix" values="0 0 0 0 0 0 0 0 0 0 0 0 0 0 0 0 0 0 127 0" result="hardAlpha"/>
<feOffset dy="4"/>
<feGaussianBlur stdDeviation="4"/>
<feComposite in2="hardAlpha" operator="out"/>
<feColorMatrix type="matrix" values="0 0 0 0 0.148194 0 0 0 0 0.235583 0 0 0 0 0.585139 0 0 0 0.13 0"/>
<feBlend mode="normal" in2="BackgroundImageFix" result="effect1_dropShadow_396_1814"/>
<feBlend mode="normal" in="SourceGraphic" in2="effect1_dropShadow_396_1814" result="shape"/>
</filter>
<filter id="filter12_d_396_1814" x="2274.61" y="616.745" width="147.132" height="154.5" filterUnits="userSpaceOnUse" color-interpolation-filters="sRGB">
<feFlood flood-opacity="0" result="BackgroundImageFix"/>
<feColorMatrix in="SourceAlpha" type="matrix" values="0 0 0 0 0 0 0 0 0 0 0 0 0 0 0 0 0 0 127 0" result="hardAlpha"/>
<feOffset dy="4"/>
<feGaussianBlur stdDeviation="4"/>
<feComposite in2="hardAlpha" operator="out"/>
<feColorMatrix type="matrix" values="0 0 0 0 0.148194 0 0 0 0 0.235583 0 0 0 0 0.585139 0 0 0 0.13 0"/>
<feBlend mode="normal" in2="BackgroundImageFix" result="effect1_dropShadow_396_1814"/>
<feBlend mode="normal" in="SourceGraphic" in2="effect1_dropShadow_396_1814" result="shape"/>
</filter>
<filter id="filter13_d_396_1814" x="2284.33" y="597.777" width="86.4316" height="75.3809" filterUnits="userSpaceOnUse" color-interpolation-filters="sRGB">
<feFlood flood-opacity="0" result="BackgroundImageFix"/>
<feColorMatrix in="SourceAlpha" type="matrix" values="0 0 0 0 0 0 0 0 0 0 0 0 0 0 0 0 0 0 127 0" result="hardAlpha"/>
<feOffset dy="4"/>
<feGaussianBlur stdDeviation="4"/>
<feComposite in2="hardAlpha" operator="out"/>
<feColorMatrix type="matrix" values="0 0 0 0 0.148194 0 0 0 0 0.235583 0 0 0 0 0.585139 0 0 0 0.13 0"/>
<feBlend mode="normal" in2="BackgroundImageFix" result="effect1_dropShadow_396_1814"/>
<feBlend mode="normal" in="SourceGraphic" in2="effect1_dropShadow_396_1814" result="shape"/>
</filter>
<filter id="filter14_d_396_1814" x="2365.33" y="641.935" width="86.4316" height="75.3809" filterUnits="userSpaceOnUse" color-interpolation-filters="sRGB">
<feFlood flood-opacity="0" result="BackgroundImageFix"/>
<feColorMatrix in="SourceAlpha" type="matrix" values="0 0 0 0 0 0 0 0 0 0 0 0 0 0 0 0 0 0 127 0" result="hardAlpha"/>
<feOffset dy="4"/>
<feGaussianBlur stdDeviation="4"/>
<feComposite in2="hardAlpha" operator="out"/>
<feColorMatrix type="matrix" values="0 0 0 0 0.148194 0 0 0 0 0.235583 0 0 0 0 0.585139 0 0 0 0.13 0"/>
<feBlend mode="normal" in2="BackgroundImageFix" result="effect1_dropShadow_396_1814"/>
<feBlend mode="normal" in="SourceGraphic" in2="effect1_dropShadow_396_1814" result="shape"/>
</filter>
<filter id="filter15_d_396_1814" x="2325.59" y="714.83" width="86.4316" height="75.3809" filterUnits="userSpaceOnUse" color-interpolation-filters="sRGB">
<feFlood flood-opacity="0" result="BackgroundImageFix"/>
<feColorMatrix in="SourceAlpha" type="matrix" values="0 0 0 0 0 0 0 0 0 0 0 0 0 0 0 0 0 0 127 0" result="hardAlpha"/>
<feOffset dy="4"/>
<feGaussianBlur stdDeviation="4"/>
<feComposite in2="hardAlpha" operator="out"/>
<feColorMatrix type="matrix" values="0 0 0 0 0.148194 0 0 0 0 0.235583 0 0 0 0 0.585139 0 0 0 0.13 0"/>
<feBlend mode="normal" in2="BackgroundImageFix" result="effect1_dropShadow_396_1814"/>
<feBlend mode="normal" in="SourceGraphic" in2="effect1_dropShadow_396_1814" result="shape"/>
</filter>
<filter id="filter16_d_396_1814" x="2244.59" y="670.673" width="86.4316" height="75.3809" filterUnits="userSpaceOnUse" color-interpolation-filters="sRGB">
<feFlood flood-opacity="0" result="BackgroundImageFix"/>
<feColorMatrix in="SourceAlpha" type="matrix" values="0 0 0 0 0 0 0 0 0 0 0 0 0 0 0 0 0 0 127 0" result="hardAlpha"/>
<feOffset dy="4"/>
<feGaussianBlur stdDeviation="4"/>
<feComposite in2="hardAlpha" operator="out"/>
<feColorMatrix type="matrix" values="0 0 0 0 0.148194 0 0 0 0 0.235583 0 0 0 0 0.585139 0 0 0 0.13 0"/>
<feBlend mode="normal" in2="BackgroundImageFix" result="effect1_dropShadow_396_1814"/>
<feBlend mode="normal" in="SourceGraphic" in2="effect1_dropShadow_396_1814" result="shape"/>
</filter>
<filter id="filter17_d_396_1814" x="2643.99" y="4466.88" width="204.93" height="204.929" filterUnits="userSpaceOnUse" color-interpolation-filters="sRGB">
<feFlood flood-opacity="0" result="BackgroundImageFix"/>
<feColorMatrix in="SourceAlpha" type="matrix" values="0 0 0 0 0 0 0 0 0 0 0 0 0 0 0 0 0 0 127 0" result="hardAlpha"/>
<feOffset dy="4"/>
<feGaussianBlur stdDeviation="4"/>
<feComposite in2="hardAlpha" operator="out"/>
<feColorMatrix type="matrix" values="0 0 0 0 0.148194 0 0 0 0 0.235583 0 0 0 0 0.585139 0 0 0 0.13 0"/>
<feBlend mode="normal" in2="BackgroundImageFix" result="effect1_dropShadow_396_1814"/>
<feBlend mode="normal" in="SourceGraphic" in2="effect1_dropShadow_396_1814" result="shape"/>
</filter>
<filter id="filter18_d_396_1814" x="2810.2" y="4200.89" width="204.929" height="204.929" filterUnits="userSpaceOnUse" color-interpolation-filters="sRGB">
<feFlood flood-opacity="0" result="BackgroundImageFix"/>
<feColorMatrix in="SourceAlpha" type="matrix" values="0 0 0 0 0 0 0 0 0 0 0 0 0 0 0 0 0 0 127 0" result="hardAlpha"/>
<feOffset dy="4"/>
<feGaussianBlur stdDeviation="4"/>
<feComposite in2="hardAlpha" operator="out"/>
<feColorMatrix type="matrix" values="0 0 0 0 0.148194 0 0 0 0 0.235583 0 0 0 0 0.585139 0 0 0 0.13 0"/>
<feBlend mode="normal" in2="BackgroundImageFix" result="effect1_dropShadow_396_1814"/>
<feBlend mode="normal" in="SourceGraphic" in2="effect1_dropShadow_396_1814" result="shape"/>
</filter>
<linearGradient id="paint0_linear_396_1814" x1="5181.14" y1="4112.8" x2="5715.76" y2="3640.47" gradientUnits="userSpaceOnUse">
<stop stop-color="#F0F6F9"/>
<stop offset="1" stop-color="#CDDFF2"/>
</linearGradient>
<linearGradient id="paint1_linear_396_1814" x1="1223.29" y1="455.097" x2="1386.44" y2="775.757" gradientUnits="userSpaceOnUse">
<stop stop-color="#F7A6A5"/>
<stop offset="1" stop-color="#F7A6A5"/>
</linearGradient>
<linearGradient id="paint2_linear_396_1814" x1="1266.02" y1="574.686" x2="1266.02" y2="745.904" gradientUnits="userSpaceOnUse">
<stop stop-color="#E78180"/>
<stop offset="1" stop-color="#E78180" stop-opacity="0"/>
</linearGradient>
<linearGradient id="paint3_linear_396_1814" x1="1156.74" y1="506.597" x2="1156.74" y2="602.703" gradientUnits="userSpaceOnUse">
<stop stop-color="#E78180"/>
<stop offset="1" stop-color="#E78180" stop-opacity="0"/>
</linearGradient>
<linearGradient id="paint4_linear_396_1814" x1="146.89" y1="0" x2="146.89" y2="75.5858" gradientUnits="userSpaceOnUse">
<stop stop-color="#E78180"/>
<stop offset="1" stop-color="#E78180" stop-opacity="0"/>
</linearGradient>
<linearGradient id="paint5_linear_396_1814" x1="948.982" y1="304.85" x2="1433.96" y2="626.183" gradientUnits="userSpaceOnUse">
<stop stop-color="#F0F6F9"/>
<stop offset="1" stop-color="#CDDFF2"/>
</linearGradient>
<linearGradient id="paint6_linear_396_1814" x1="754.803" y1="2885.23" x2="732.868" y2="3598.28" gradientUnits="userSpaceOnUse">
<stop stop-color="#F0F6F9"/>
<stop offset="1" stop-color="#CDDFF2"/>
</linearGradient>
<linearGradient id="paint7_linear_396_1814" x1="746.043" y1="2933.93" x2="642.405" y2="3103.58" gradientUnits="userSpaceOnUse">
<stop stop-color="white"/>
<stop offset="1" stop-color="white"/>
</linearGradient>
<linearGradient id="paint8_linear_396_1814" x1="746.043" y1="2933.93" x2="642.405" y2="3103.58" gradientUnits="userSpaceOnUse">
<stop stop-color="white"/>
<stop offset="1" stop-color="white"/>
</linearGradient>
<linearGradient id="paint9_linear_396_1814" x1="911.019" y1="3369.84" x2="845.854" y2="3476.5" gradientUnits="userSpaceOnUse">
<stop stop-color="white"/>
<stop offset="1" stop-color="white"/>
</linearGradient>
<linearGradient id="paint10_linear_396_1814" x1="911.019" y1="3369.84" x2="845.854" y2="3476.5" gradientUnits="userSpaceOnUse">
<stop stop-color="white"/>
<stop offset="1" stop-color="white"/>
</linearGradient>
<linearGradient id="paint11_linear_396_1814" x1="3900.13" y1="1335.02" x2="4390.31" y2="1726.46" gradientUnits="userSpaceOnUse">
<stop stop-color="#F6F1E8"/>
<stop offset="1" stop-color="#D8B682"/>
</linearGradient>
<linearGradient id="paint12_linear_396_1814" x1="4036.39" y1="1452.08" x2="4605.16" y2="1887.44" gradientUnits="userSpaceOnUse">
<stop stop-color="#F1F7FA"/>
<stop offset="1" stop-color="#CFE0F3"/>
</linearGradient>
<linearGradient id="paint13_linear_396_1814" x1="4168.31" y1="1676.22" x2="4384.13" y2="2140.32" gradientUnits="userSpaceOnUse">
<stop stop-color="#F0F6FA"/>
<stop offset="1" stop-color="#CEE0F3"/>
</linearGradient>
<linearGradient id="paint14_linear_396_1814" x1="4367.42" y1="1469.2" x2="4493.56" y2="1649.3" gradientUnits="userSpaceOnUse">
<stop stop-color="#134980"/>
<stop offset="1" stop-color="#236BB4" stop-opacity="0"/>
</linearGradient>
<linearGradient id="paint15_linear_396_1814" x1="4367.42" y1="1469.2" x2="4493.56" y2="1649.3" gradientUnits="userSpaceOnUse">
<stop stop-color="#134980"/>
<stop offset="1" stop-color="#236BB4" stop-opacity="0"/>
</linearGradient>
<linearGradient id="paint16_linear_396_1814" x1="4367.42" y1="1469.2" x2="4493.56" y2="1649.3" gradientUnits="userSpaceOnUse">
<stop stop-color="#134980"/>
<stop offset="1" stop-color="#236BB4" stop-opacity="0"/>
</linearGradient>
<linearGradient id="paint17_linear_396_1814" x1="4387.99" y1="1592.65" x2="4303.26" y2="1502.43" gradientUnits="userSpaceOnUse">
<stop stop-color="#F4F8FB"/>
<stop offset="0.651561" stop-color="white"/>
<stop offset="1" stop-color="#F9F6F2"/>
</linearGradient>
<linearGradient id="paint18_linear_396_1814" x1="4192.92" y1="2759.56" x2="4260.72" y2="2885.46" gradientUnits="userSpaceOnUse">
<stop stop-color="#AAC8E3"/>
<stop offset="1" stop-color="#C8DBED"/>
</linearGradient>
<linearGradient id="paint19_linear_396_1814" x1="4070.27" y1="2891.74" x2="4114.94" y2="2867.68" gradientUnits="userSpaceOnUse">
<stop stop-color="#F1F7FA"/>
<stop offset="1" stop-color="#F0F7FA" stop-opacity="0"/>
</linearGradient>
<linearGradient id="paint20_linear_396_1814" x1="4192.92" y1="2759.56" x2="4212.61" y2="2796.11" gradientUnits="userSpaceOnUse">
<stop stop-color="#065099"/>
<stop offset="1" stop-color="#065099" stop-opacity="0"/>
</linearGradient>
<linearGradient id="paint21_linear_396_1814" x1="4173.24" y1="2723.01" x2="4221.35" y2="2812.36" gradientUnits="userSpaceOnUse">
<stop stop-color="#23578B"/>
<stop offset="1" stop-color="#23578B" stop-opacity="0"/>
</linearGradient>
<linearGradient id="paint22_linear_396_1814" x1="4036.1" y1="2828.3" x2="4383.2" y2="3112.87" gradientUnits="userSpaceOnUse">
<stop stop-color="#E8F2F8"/>
<stop offset="1" stop-color="#CDDFF2"/>
</linearGradient>
<radialGradient id="paint23_radial_396_1814" cx="0" cy="0" r="1" gradientUnits="userSpaceOnUse" gradientTransform="translate(4176.68 2836.41) rotate(42.7252) scale(156.077 194.919)">
<stop stop-color="white"/>
<stop offset="1" stop-color="#EDF5F8" stop-opacity="0"/>
</radialGradient>
<linearGradient id="paint24_linear_396_1814" x1="3945.81" y1="2709.28" x2="4446.9" y2="2764.23" gradientUnits="userSpaceOnUse">
<stop stop-color="#F0F6F9"/>
<stop offset="1" stop-color="#CDDFF2"/>
</linearGradient>
<linearGradient id="paint25_linear_396_1814" x1="2840.51" y1="3158.34" x2="2907.53" y2="3284.65" gradientUnits="userSpaceOnUse">
<stop stop-color="#AAC8E3"/>
<stop offset="1" stop-color="#C8DBED"/>
</linearGradient>
<linearGradient id="paint26_linear_396_1814" x1="2717.04" y1="3289.76" x2="2761.86" y2="3265.98" gradientUnits="userSpaceOnUse">
<stop stop-color="#F1F7FA"/>
<stop offset="1" stop-color="#F0F7FA" stop-opacity="0"/>
</linearGradient>
<linearGradient id="paint27_linear_396_1814" x1="2840.51" y1="3158.34" x2="2859.97" y2="3195.01" gradientUnits="userSpaceOnUse">
<stop stop-color="#065099"/>
<stop offset="1" stop-color="#065099" stop-opacity="0"/>
</linearGradient>
<linearGradient id="paint28_linear_396_1814" x1="2821.05" y1="3121.67" x2="2868.61" y2="3211.31" gradientUnits="userSpaceOnUse">
<stop stop-color="#23578B"/>
<stop offset="1" stop-color="#23578B" stop-opacity="0"/>
</linearGradient>
<linearGradient id="paint29_linear_396_1814" x1="2836.18" y1="3150.19" x2="2885.91" y2="3243.91" gradientUnits="userSpaceOnUse">
<stop stop-color="#E8C200"/>
<stop offset="1" stop-color="#FFE457" stop-opacity="0"/>
</linearGradient>
<linearGradient id="paint30_linear_396_1814" x1="2683.27" y1="3226.11" x2="3028.59" y2="3512.82" gradientUnits="userSpaceOnUse">
<stop stop-color="#E8F2F8"/>
<stop offset="1" stop-color="#CDDFF2"/>
</linearGradient>
<radialGradient id="paint31_radial_396_1814" cx="0" cy="0" r="1" gradientUnits="userSpaceOnUse" gradientTransform="translate(2823.79 3235.09) rotate(43.0801) scale(156.077 194.919)">
<stop stop-color="white"/>
<stop offset="1" stop-color="#EDF5F8" stop-opacity="0"/>
</radialGradient>
<linearGradient id="paint32_linear_396_1814" x1="2593.71" y1="3106.53" x2="3244.45" y2="3147.83" gradientUnits="userSpaceOnUse">
<stop stop-color="#F9EE93"/>
<stop offset="1" stop-color="#E4BB29"/>
</linearGradient>
<linearGradient id="paint33_linear_396_1814" x1="2539" y1="3062.46" x2="2621.15" y2="3217.29" gradientUnits="userSpaceOnUse">
<stop stop-color="white"/>
<stop offset="1" stop-color="white"/>
</linearGradient>
<linearGradient id="paint34_linear_396_1814" x1="2539" y1="3062.46" x2="2621.15" y2="3217.29" gradientUnits="userSpaceOnUse">
<stop stop-color="white"/>
<stop offset="1" stop-color="white"/>
</linearGradient>
<linearGradient id="paint35_linear_396_1814" x1="5345.71" y1="677.393" x2="5449.36" y2="587.392" gradientUnits="userSpaceOnUse">
<stop stop-color="#AAC8E3"/>
<stop offset="1" stop-color="#C8DBED"/>
</linearGradient>
<linearGradient id="paint36_linear_396_1814" x1="5489.15" y1="757.336" x2="5459.05" y2="722.675" gradientUnits="userSpaceOnUse">
<stop stop-color="#F1F7FA"/>
<stop offset="1" stop-color="#F0F7FA" stop-opacity="0"/>
</linearGradient>
<linearGradient id="paint37_linear_396_1814" x1="5345.71" y1="677.393" x2="5375.8" y2="651.264" gradientUnits="userSpaceOnUse">
<stop stop-color="#065099"/>
<stop offset="1" stop-color="#065099" stop-opacity="0"/>
</linearGradient>
<linearGradient id="paint38_linear_396_1814" x1="5438.6" y1="803.654" x2="5623.41" y2="432.334" gradientUnits="userSpaceOnUse">
<stop stop-color="#E8F2F8"/>
<stop offset="1" stop-color="#CDDFF2"/>
</linearGradient>
<radialGradient id="paint39_radial_396_1814" cx="0" cy="0" r="1" gradientUnits="userSpaceOnUse" gradientTransform="translate(5418.2 675.971) rotate(-59.7479) scale(144.295 178.649)">
<stop stop-color="white"/>
<stop offset="1" stop-color="#EDF5F8" stop-opacity="0"/>
</radialGradient>
<linearGradient id="paint40_linear_396_1814" x1="5258.39" y1="985.74" x2="5201.13" y2="528.501" gradientUnits="userSpaceOnUse">
<stop stop-color="#F0F6F9"/>
<stop offset="1" stop-color="#CDDFF2"/>
</linearGradient>
<linearGradient id="paint41_linear_396_1814" x1="3770.28" y1="222.969" x2="3765.87" y2="930.628" gradientUnits="userSpaceOnUse">
<stop stop-color="#F0F6F9"/>
<stop offset="1" stop-color="#CDDFF2"/>
</linearGradient>
<linearGradient id="paint42_linear_396_1814" x1="3789.47" y1="620.638" x2="3803.09" y2="596.548" gradientUnits="userSpaceOnUse">
<stop offset="0.241809" stop-color="#065099"/>
<stop offset="1" stop-color="#DFEBF6" stop-opacity="0.47"/>
</linearGradient>
<linearGradient id="paint43_linear_396_1814" x1="3800.3" y1="610.863" x2="3818.46" y2="578.743" gradientUnits="userSpaceOnUse">
<stop stop-color="#065099"/>
<stop offset="1" stop-color="#065099" stop-opacity="0"/>
</linearGradient>
<linearGradient id="paint44_linear_396_1814" x1="3830.08" y1="895.539" x2="3562.74" y2="600.761" gradientUnits="userSpaceOnUse">
<stop stop-color="#BCC1D6"/>
<stop offset="1" stop-color="#E9ECFA"/>
</linearGradient>
<linearGradient id="paint45_linear_396_1814" x1="3720.27" y1="565.609" x2="3830.8" y2="654.665" gradientUnits="userSpaceOnUse">
<stop stop-color="#F0F3FF"/>
<stop offset="1" stop-color="#E1E5F5"/>
</linearGradient>
<linearGradient id="paint46_linear_396_1814" x1="3658.7" y1="774.544" x2="3695.03" y2="809.847" gradientUnits="userSpaceOnUse">
<stop stop-color="#F1F4FF"/>
<stop offset="1" stop-color="#D5DAF0"/>
</linearGradient>
<linearGradient id="paint47_linear_396_1814" x1="3700.42" y1="723.948" x2="3743.68" y2="767.966" gradientUnits="userSpaceOnUse">
<stop stop-color="#F1F4FF"/>
<stop offset="1" stop-color="#D5DAF0"/>
</linearGradient>
<linearGradient id="paint48_linear_396_1814" x1="3731.33" y1="667.241" x2="3780.74" y2="720.629" gradientUnits="userSpaceOnUse">
<stop stop-color="#F1F4FF"/>
<stop offset="1" stop-color="#D5DAF0"/>
</linearGradient>
<linearGradient id="paint49_linear_396_1814" x1="3756.91" y1="3891.66" x2="4302.59" y2="4351.17" gradientUnits="userSpaceOnUse">
<stop stop-color="#F0F6F9"/>
<stop offset="1" stop-color="#CDDFF2"/>
</linearGradient>
<linearGradient id="paint50_linear_396_1814" x1="3756.91" y1="3891.66" x2="4302.59" y2="4351.17" gradientUnits="userSpaceOnUse">
<stop stop-color="#F0F6F9"/>
<stop offset="1" stop-color="#CDDFF2"/>
</linearGradient>
<linearGradient id="paint51_linear_396_1814" x1="4064.41" y1="3732.69" x2="4107.26" y2="4134.48" gradientUnits="userSpaceOnUse">
<stop stop-color="#E6F0F8"/>
<stop offset="1" stop-color="#6F93BA"/>
</linearGradient>
<linearGradient id="paint52_linear_396_1814" x1="2117.42" y1="3913.19" x2="1448.38" y2="3971.71" gradientUnits="userSpaceOnUse">
<stop stop-color="#DFE3F3"/>
<stop offset="1" stop-color="#CCD0E3"/>
</linearGradient>
<linearGradient id="paint53_linear_396_1814" x1="2117.42" y1="3913.19" x2="1448.38" y2="3971.71" gradientUnits="userSpaceOnUse">
<stop stop-color="#DFE3F3"/>
<stop offset="1" stop-color="#CCD0E3"/>
</linearGradient>
<linearGradient id="paint54_linear_396_1814" x1="1824.74" y1="4074" x2="1933.46" y2="4074" gradientUnits="userSpaceOnUse">
<stop stop-color="#9099C4"/>
<stop offset="1" stop-color="#9099C4" stop-opacity="0"/>
</linearGradient>
<linearGradient id="paint55_linear_396_1814" x1="1825.25" y1="4083.89" x2="1861.49" y2="4083.89" gradientUnits="userSpaceOnUse">
<stop stop-color="#9099C4"/>
<stop offset="1" stop-color="#9099C4" stop-opacity="0"/>
</linearGradient>
<linearGradient id="paint56_linear_396_1814" x1="1876.09" y1="3863.86" x2="1912.33" y2="3863.86" gradientUnits="userSpaceOnUse">
<stop stop-color="#9099C4"/>
<stop offset="1" stop-color="#9099C4" stop-opacity="0"/>
</linearGradient>
<linearGradient id="paint57_linear_396_1814" x1="2019.04" y1="4133.58" x2="1635.79" y2="3583.89" gradientUnits="userSpaceOnUse">
<stop stop-color="#E9ECF7"/>
<stop offset="1" stop-color="#CCD0E3"/>
</linearGradient>
<linearGradient id="paint58_linear_396_1814" x1="2019.04" y1="4133.58" x2="1635.79" y2="3583.89" gradientUnits="userSpaceOnUse">
<stop stop-color="#E9ECF7"/>
<stop offset="1" stop-color="#CCD0E3"/>
</linearGradient>
<linearGradient id="paint59_linear_396_1814" x1="1994.99" y1="3851.39" x2="1875.38" y2="3887.29" gradientUnits="userSpaceOnUse">
<stop stop-color="white"/>
<stop offset="1" stop-color="white" stop-opacity="0"/>
</linearGradient>
<linearGradient id="paint60_linear_396_1814" x1="1881.74" y1="3919.54" x2="1826.21" y2="3885.94" gradientUnits="userSpaceOnUse">
<stop stop-color="#F7F7FB"/>
<stop offset="1" stop-color="#DEE1F0"/>
</linearGradient>
<linearGradient id="paint61_linear_396_1814" x1="2021.91" y1="3999.13" x2="1840.54" y2="3894.53" gradientUnits="userSpaceOnUse">
<stop stop-color="#C5CAE2"/>
<stop offset="1" stop-color="#D1D5E7"/>
</linearGradient>
<linearGradient id="paint62_linear_396_1814" x1="5627.77" y1="2469.96" x2="5558.41" y2="3179.97" gradientUnits="userSpaceOnUse">
<stop stop-color="#F0F6F9"/>
<stop offset="1" stop-color="#CDDFF2"/>
</linearGradient>
<linearGradient id="paint63_linear_396_1814" x1="5974.46" y1="2692.28" x2="5566.52" y2="2918.01" gradientUnits="userSpaceOnUse">
<stop stop-color="#E0EDF6"/>
<stop offset="1" stop-color="#A5CAE8"/>
</linearGradient>
<linearGradient id="paint64_linear_396_1814" x1="5381.92" y1="2787.6" x2="5476.14" y2="2758.16" gradientUnits="userSpaceOnUse">
<stop stop-color="#043A70"/>
<stop offset="1" stop-color="#065099" stop-opacity="0"/>
</linearGradient>
<linearGradient id="paint65_linear_396_1814" x1="5629.39" y1="3148.78" x2="5677.95" y2="3104.03" gradientUnits="userSpaceOnUse">
<stop stop-color="#002C57"/>
<stop offset="1" stop-color="#065099" stop-opacity="0"/>
</linearGradient>
<radialGradient id="paint66_radial_396_1814" cx="0" cy="0" r="1" gradientUnits="userSpaceOnUse" gradientTransform="translate(5595.27 2881.42) rotate(-35.528) scale(268.9 238.023)">
<stop stop-color="#F8BAB9"/>
<stop offset="1" stop-color="#C9706F"/>
</radialGradient>
<linearGradient id="paint67_linear_396_1814" x1="2164.39" y1="773.234" x2="2184.44" y2="774.583" gradientUnits="userSpaceOnUse">
<stop stop-color="#E2E6F3"/>
<stop offset="1" stop-color="#D5DAF0"/>
</linearGradient>
<linearGradient id="paint68_linear_396_1814" x1="2221.8" y1="667.94" x2="2241.84" y2="669.289" gradientUnits="userSpaceOnUse">
<stop stop-color="#E2E6F3"/>
<stop offset="1" stop-color="#D5DAF0"/>
</linearGradient>
<linearGradient id="paint69_linear_396_1814" x1="2135.05" y1="762.926" x2="2396.43" y2="671.984" gradientUnits="userSpaceOnUse">
<stop stop-color="#F0F6F9"/>
<stop offset="1" stop-color="#CDDFF2"/>
</linearGradient>
<linearGradient id="paint70_linear_396_1814" x1="1951.78" y1="1041.26" x2="2344.88" y2="952.215" gradientUnits="userSpaceOnUse">
<stop stop-color="#F0F6F9"/>
<stop offset="1" stop-color="#CDDFF2"/>
</linearGradient>
<linearGradient id="paint71_linear_396_1814" x1="2208.31" y1="792.36" x2="2311.4" y2="853.814" gradientUnits="userSpaceOnUse">
<stop stop-color="#E3E7F6"/>
<stop offset="1" stop-color="#C7CCDF"/>
</linearGradient>
<radialGradient id="paint72_radial_396_1814" cx="0" cy="0" r="1" gradientUnits="userSpaceOnUse" gradientTransform="translate(2343.76 698.094) rotate(116.477) scale(124.623 685.418)">
<stop stop-color="#ADB6DA"/>
<stop offset="1" stop-color="#626D97" stop-opacity="0"/>
</radialGradient>
<radialGradient id="paint73_radial_396_1814" cx="0" cy="0" r="1" gradientUnits="userSpaceOnUse" gradientTransform="translate(2343.76 698.094) rotate(116.477) scale(124.623 685.418)">
<stop stop-color="#ADB6DA"/>
<stop offset="1" stop-color="#626D97" stop-opacity="0"/>
</radialGradient>
<linearGradient id="paint74_linear_396_1814" x1="2152.11" y1="952.726" x2="2251.82" y2="973.068" gradientUnits="userSpaceOnUse">
<stop stop-color="#F2F5FF"/>
<stop offset="1" stop-color="#D6DBF1"/>
</linearGradient>
<radialGradient id="paint75_radial_396_1814" cx="0" cy="0" r="1" gradientUnits="userSpaceOnUse" gradientTransform="translate(2118.48 880.454) rotate(70.1303) scale(138.379 143.749)">
<stop stop-color="white"/>
<stop offset="1" stop-color="white" stop-opacity="0"/>
</radialGradient>
<linearGradient id="paint76_linear_396_1814" x1="2142.67" y1="893.07" x2="2215.98" y2="890.612" gradientUnits="userSpaceOnUse">
<stop stop-color="#F2F5FF"/>
<stop offset="0.151042" stop-color="#F8F9FE"/>
<stop offset="1" stop-color="#D6DBF1"/>
</linearGradient>
<linearGradient id="paint77_linear_396_1814" x1="2223.66" y1="937.227" x2="2296.98" y2="934.769" gradientUnits="userSpaceOnUse">
<stop stop-color="#F2F5FF"/>
<stop offset="0.151042" stop-color="#F8F9FE"/>
<stop offset="1" stop-color="#D6DBF1"/>
</linearGradient>
<linearGradient id="paint78_linear_396_1814" x1="2183.92" y1="1010.12" x2="2257.24" y2="1007.66" gradientUnits="userSpaceOnUse">
<stop stop-color="#F2F5FF"/>
<stop offset="0.151042" stop-color="#F8F9FE"/>
<stop offset="1" stop-color="#D6DBF1"/>
</linearGradient>
<linearGradient id="paint79_linear_396_1814" x1="2102.92" y1="965.965" x2="2176.24" y2="963.508" gradientUnits="userSpaceOnUse">
<stop stop-color="#F2F5FF"/>
<stop offset="0.151042" stop-color="#F8F9FE"/>
<stop offset="1" stop-color="#D6DBF1"/>
</linearGradient>
<linearGradient id="paint80_linear_396_1814" x1="2325.66" y1="716.258" x2="2355.52" y2="813.534" gradientUnits="userSpaceOnUse">
<stop stop-color="#F2F5FF"/>
<stop offset="1" stop-color="#D6DBF1"/>
</linearGradient>
<radialGradient id="paint81_radial_396_1814" cx="0" cy="0" r="1" gradientUnits="userSpaceOnUse" gradientTransform="translate(2373.01 652.132) rotate(131.532) scale(138.379 143.749)">
<stop stop-color="white"/>
<stop offset="1" stop-color="white" stop-opacity="0"/>
</radialGradient>
<linearGradient id="paint82_linear_396_1814" x1="2292.8" y1="617.687" x2="2366.12" y2="615.229" gradientUnits="userSpaceOnUse">
<stop stop-color="#F2F5FF"/>
<stop offset="0.151042" stop-color="#F8F9FE"/>
<stop offset="1" stop-color="#D6DBF1"/>
</linearGradient>
<linearGradient id="paint83_linear_396_1814" x1="2373.8" y1="661.844" x2="2447.11" y2="659.387" gradientUnits="userSpaceOnUse">
<stop stop-color="#F2F5FF"/>
<stop offset="0.151042" stop-color="#F8F9FE"/>
<stop offset="1" stop-color="#D6DBF1"/>
</linearGradient>
<linearGradient id="paint84_linear_396_1814" x1="2334.05" y1="734.74" x2="2407.37" y2="732.282" gradientUnits="userSpaceOnUse">
<stop stop-color="#F2F5FF"/>
<stop offset="0.151042" stop-color="#F8F9FE"/>
<stop offset="1" stop-color="#D6DBF1"/>
</linearGradient>
<linearGradient id="paint85_linear_396_1814" x1="2253.06" y1="690.582" x2="2326.38" y2="688.125" gradientUnits="userSpaceOnUse">
<stop stop-color="#F2F5FF"/>
<stop offset="0.151042" stop-color="#F8F9FE"/>
<stop offset="1" stop-color="#D6DBF1"/>
</linearGradient>
<linearGradient id="paint86_linear_396_1814" x1="2868.68" y1="1536.28" x2="2825.72" y2="2248.37" gradientUnits="userSpaceOnUse">
<stop stop-color="#F0F6F9"/>
<stop offset="1" stop-color="#CDDFF2"/>
</linearGradient>
<linearGradient id="paint87_linear_396_1814" x1="3051.03" y1="1655.21" x2="2698.27" y2="2196.09" gradientUnits="userSpaceOnUse">
<stop stop-color="#486982"/>
<stop offset="1" stop-color="#3A556A"/>
</linearGradient>
<radialGradient id="paint88_radial_396_1814" cx="0" cy="0" r="1" gradientUnits="userSpaceOnUse" gradientTransform="translate(2851.74 1960.78) rotate(-74.8) scale(297.753 247.98)">
<stop stop-color="#375168"/>
<stop offset="1" stop-color="#2C4255"/>
</radialGradient>
<linearGradient id="paint89_linear_396_1814" x1="717.993" y1="1621.13" x2="227.283" y2="1810.07" gradientUnits="userSpaceOnUse">
<stop stop-color="#486982"/>
<stop offset="1" stop-color="#3A556A"/>
</linearGradient>
<radialGradient id="paint90_radial_396_1814" cx="0" cy="0" r="1" gradientUnits="userSpaceOnUse" gradientTransform="translate(440.728 1727.89) rotate(-39.5121) scale(236.69 202.263)">
<stop stop-color="#375168"/>
<stop offset="1" stop-color="#2C4255"/>
</radialGradient>
<linearGradient id="paint91_linear_396_1814" x1="554.423" y1="1684.11" x2="286.673" y2="1787.2" gradientUnits="userSpaceOnUse">
<stop stop-color="#466780"/>
<stop offset="1" stop-color="#486881" stop-opacity="0"/>
</linearGradient>
<linearGradient id="paint92_linear_396_1814" x1="2698.61" y1="4365.07" x2="2964.93" y2="4289.8" gradientUnits="userSpaceOnUse">
<stop stop-color="#F0F6F9"/>
<stop offset="1" stop-color="#CDDFF2"/>
</linearGradient>
<linearGradient id="paint93_linear_396_1814" x1="2499.16" y1="4632.04" x2="2896.84" y2="4566.48" gradientUnits="userSpaceOnUse">
<stop stop-color="#F0F6F9"/>
<stop offset="1" stop-color="#CDDFF2"/>
</linearGradient>
<linearGradient id="paint94_linear_396_1814" x1="2770" y1="4398.8" x2="2869.26" y2="4466.27" gradientUnits="userSpaceOnUse">
<stop stop-color="#E3E7F6"/>
<stop offset="1" stop-color="#C7CCDF"/>
</linearGradient>
<radialGradient id="paint95_radial_396_1814" cx="0" cy="0" r="1" gradientUnits="userSpaceOnUse" gradientTransform="translate(2910.8 4312.74) rotate(119.88) scale(124.623 685.418)">
<stop stop-color="#ADB6DA"/>
<stop offset="1" stop-color="#626D97" stop-opacity="0"/>
</radialGradient>
<radialGradient id="paint96_radial_396_1814" cx="0" cy="0" r="1" gradientUnits="userSpaceOnUse" gradientTransform="translate(2910.8 4312.74) rotate(119.88) scale(124.623 685.418)">
<stop stop-color="#ADB6DA"/>
<stop offset="1" stop-color="#626D97" stop-opacity="0"/>
</radialGradient>
<radialGradient id="paint97_radial_396_1814" cx="0" cy="0" r="1" gradientUnits="userSpaceOnUse" gradientTransform="translate(2754.37 4563.08) rotate(-55.8782) scale(124.623 685.418)">
<stop stop-color="#ADB6DA"/>
<stop offset="1" stop-color="#626D97" stop-opacity="0"/>
</radialGradient>
<radialGradient id="paint98_radial_396_1814" cx="0" cy="0" r="1" gradientUnits="userSpaceOnUse" gradientTransform="translate(2754.37 4563.08) rotate(-55.8782) scale(124.623 685.418)">
<stop stop-color="#ADB6DA"/>
<stop offset="1" stop-color="#626D97" stop-opacity="0"/>
</radialGradient>
<linearGradient id="paint99_linear_396_1814" x1="2663.91" y1="4533.76" x2="2846.78" y2="4571.88" gradientUnits="userSpaceOnUse">
<stop stop-color="#F2F5FF"/>
<stop offset="1" stop-color="#D6DBF1"/>
</linearGradient>
<radialGradient id="paint100_radial_396_1814" cx="0" cy="0" r="1" gradientUnits="userSpaceOnUse" gradientTransform="translate(2601.32 4407.62) rotate(68.4316) scale(240.78 240.78)">
<stop stop-color="white"/>
<stop offset="1" stop-color="white" stop-opacity="0"/>
</radialGradient>
<linearGradient id="paint101_linear_396_1814" x1="2830.13" y1="4267.77" x2="3012.99" y2="4305.89" gradientUnits="userSpaceOnUse">
<stop stop-color="#F2F5FF"/>
<stop offset="1" stop-color="#D6DBF1"/>
</linearGradient>
<radialGradient id="paint102_radial_396_1814" cx="0" cy="0" r="1" gradientUnits="userSpaceOnUse" gradientTransform="translate(2767.54 4141.63) rotate(68.4316) scale(240.78 240.78)">
<stop stop-color="white"/>
<stop offset="1" stop-color="white" stop-opacity="0"/>
</radialGradient>
<linearGradient id="paint103_linear_396_1814" x1="1525.14" y1="2641.8" x2="2059.76" y2="2169.47" gradientUnits="userSpaceOnUse">
<stop stop-color="#F0F6F9"/>
<stop offset="1" stop-color="#CDDFF2"/>
</linearGradient>
<clipPath id="clip0_396_1814">
<rect width="738" height="738" fill="white" transform="translate(5166.93 4270.33) rotate(-101.801)"/>
</clipPath>
<clipPath id="clip1_396_1814">
<rect width="738" height="738" fill="white" transform="translate(748.004 334.648) rotate(-26.9654)"/>
</clipPath>
<clipPath id="clip2_396_1814">
<rect width="738" height="738" fill="white" transform="translate(649.742 2767) rotate(31.4211)"/>
</clipPath>
<clipPath id="clip3_396_1814">
<rect width="738" height="738" fill="white" transform="translate(3878 1470.12) rotate(-23.3177)"/>
</clipPath>
<clipPath id="clip4_396_1814">
<rect width="738" height="738" fill="white" transform="translate(3739 2694.93) rotate(-28.3044)"/>
</clipPath>
<clipPath id="clip5_396_1814">
<rect width="738" height="738" fill="white" transform="translate(2387 3090.89) rotate(-27.9495)"/>
</clipPath>
<clipPath id="clip6_396_1814">
<rect width="738" height="738" fill="white" transform="translate(5331.88 1178.11) rotate(-130.97)"/>
</clipPath>
<clipPath id="clip7_396_1814">
<rect width="738" height="738" fill="white" transform="translate(3665.27 99.999) rotate(29.4872)"/>
</clipPath>
<clipPath id="clip8_396_1814">
<rect width="738" height="738" fill="white" transform="translate(3599.01 3900.72) rotate(-20.2402)"/>
</clipPath>
<clipPath id="clip9_396_1814">
<rect width="738" height="738" fill="white" transform="translate(2233.04 4086.24) rotate(159.056)"/>
</clipPath>
<clipPath id="clip10_396_1814">
<rect width="738" height="738" fill="white" transform="translate(5530.82 2345) rotate(35.2385)"/>
</clipPath>
<clipPath id="clip11_396_1814">
<rect width="738" height="738" fill="white" transform="translate(1732 952.959) rotate(-61.4015)"/>
</clipPath>
<clipPath id="clip12_396_1814">
<rect width="738" height="738" fill="white" transform="translate(2767.15 1415) rotate(33.1116)"/>
</clipPath>
<clipPath id="clip13_396_1814">
<rect width="738" height="738" fill="white" transform="translate(688.715 1237) rotate(68.9422)"/>
</clipPath>
<clipPath id="clip14_396_1814">
<rect width="738" height="738" fill="white" transform="translate(2285 4530.85) rotate(-57.9993)"/>
</clipPath>
<clipPath id="clip15_396_1814">
<rect width="738" height="738" fill="white" transform="translate(1510.93 2799.33) rotate(-101.801)"/>
</clipPath>
</defs>
</svg>
